<svg width="1920" height="1080" viewBox="0 0 1920 1080" fill="none" xmlns="http://www.w3.org/2000/svg">
<rect x="0.5" y="0.5" width="1919" height="1079" fill="white"/>
<rect x="0.5" y="0.5" width="1919" height="1079" stroke="black"/>
<path d="M1066.5 575.5L1029.98 538.982C1025.54 534.546 1019.53 532.053 1013.25 532.053C1006.97 532.053 1000.96 534.546 996.518 538.982L889 646.5M877.167 433.5H1042.83C1055.9 433.5 1066.5 444.096 1066.5 457.167V622.833C1066.5 635.904 1055.9 646.5 1042.83 646.5H877.167C864.096 646.5 853.5 635.904 853.5 622.833V457.167C853.5 444.096 864.096 433.5 877.167 433.5ZM948.167 504.5C948.167 517.571 937.571 528.167 924.5 528.167C911.429 528.167 900.833 517.571 900.833 504.5C900.833 491.429 911.429 480.833 924.5 480.833C937.571 480.833 948.167 491.429 948.167 504.5Z" stroke="black" stroke-width="2" stroke-linecap="round" stroke-linejoin="round"/>
</svg>
