<svg width="430" height="932" viewBox="0 0 430 932" fill="none" xmlns="http://www.w3.org/2000/svg">
<g clip-path="url(#clip0_2_5)">
<rect width="430" height="932" fill="#EEEEEE"/>
<g filter="url(#filter0_d_2_5)">
<circle cx="221" cy="-102" r="439" fill="#0D0D7F"/>
</g>
<path d="M195.112 397C204.8 397 212.699 404.655 213.092 414.246H213.108V457.042C211.372 455.709 209.403 454.72 207.303 454.133C204.884 453.456 202.349 453.327 199.877 453.754C198.789 453.942 198.059 454.976 198.246 456.064C198.434 457.153 199.468 457.883 200.557 457.695C202.443 457.37 204.377 457.469 206.225 457.985C208.072 458.502 209.794 459.427 211.268 460.699C211.944 461.283 212.56 461.935 213.108 462.643V468.984C213.108 472.09 210.59 474.608 207.484 474.608H184.8C185.092 474.173 185.408 473.754 185.751 473.353C187.044 471.839 188.659 470.619 190.482 469.781C192.307 468.944 194.296 468.509 196.311 468.509C197.415 468.509 198.31 467.613 198.311 466.509C198.311 465.404 197.415 464.509 196.311 464.509C193.721 464.509 191.162 465.068 188.813 466.146C186.465 467.225 184.381 468.797 182.71 470.754C181.707 471.928 180.868 473.225 180.208 474.608H163.12C161.595 472.417 159.633 470.571 157.383 469.248C154.036 467.281 150.282 466.601 146.814 467.334C145.734 467.562 145.042 468.624 145.271 469.704C145.499 470.785 146.56 471.475 147.641 471.247C150.037 470.741 152.781 471.183 155.355 472.696C156.256 473.226 157.102 473.871 157.878 474.608H145.623V474.562C140.783 474.09 137 470.012 137 465.048C137 460.844 139.714 457.276 143.484 455.995C143.722 459.017 144.793 461.807 146.591 464.016C147.288 464.872 148.549 465.002 149.405 464.305C150.262 463.607 150.39 462.348 149.693 461.491C148.147 459.592 147.285 456.949 147.453 453.967C147.622 450.978 148.818 447.946 150.861 445.482C152.905 443.019 155.57 441.392 158.283 440.802C160.977 440.215 163.515 440.684 165.502 441.964C166.431 442.562 167.669 442.294 168.267 441.365C168.864 440.437 168.596 439.2 167.668 438.602C164.724 436.705 161.088 436.098 157.433 436.894C155.228 437.373 153.108 438.346 151.207 439.72C150.988 438.387 150.872 437.016 150.872 435.616C150.872 422.572 160.776 411.997 172.992 411.997C173.165 411.997 173.336 411.999 173.508 412.003C173.044 415.287 173.604 418.646 175.093 421.721C176.58 424.793 178.939 427.466 181.891 429.479C182.803 430.101 184.048 429.866 184.67 428.954C185.292 428.042 185.057 426.796 184.145 426.174C181.729 424.526 179.855 422.377 178.693 419.978C177.533 417.581 177.122 415.02 177.47 412.56C177.51 412.274 177.486 411.994 177.412 411.733C178.947 403.352 186.288 397 195.112 397ZM156.271 452.771C155.601 451.892 154.345 451.722 153.467 452.392C152.589 453.061 152.419 454.316 153.088 455.194C154.555 457.12 156.418 458.709 158.545 459.849C160.672 460.989 163.015 461.653 165.407 461.795C167.8 461.937 170.186 461.555 172.398 460.673C174.611 459.791 176.598 458.432 178.22 456.689C178.972 455.881 178.927 454.615 178.119 453.862C177.311 453.11 176.045 453.155 175.292 453.963C174.074 455.272 172.581 456.294 170.918 456.957C169.254 457.62 167.455 457.91 165.645 457.803C163.834 457.695 162.056 457.192 160.435 456.323C158.813 455.455 157.392 454.242 156.271 452.771ZM172.62 428.645C170.139 427.612 167.444 427.204 164.764 427.456C163.664 427.56 162.857 428.534 162.96 429.634C163.063 430.733 164.038 431.541 165.138 431.438C167.168 431.248 169.207 431.557 171.083 432.338C172.959 433.119 174.623 434.351 175.932 435.936C177.24 437.52 178.155 439.412 178.593 441.453C179.03 443.495 178.977 445.622 178.433 447.653C178.147 448.72 178.78 449.816 179.847 450.103C180.913 450.388 182.011 449.755 182.297 448.688C183.004 446.048 183.076 443.278 182.505 440.615C181.934 437.952 180.736 435.472 179.016 433.389C177.295 431.305 175.101 429.677 172.62 428.645ZM187.989 408.997C186.885 408.997 185.99 409.893 185.989 410.997C185.989 412.102 186.885 412.997 187.989 412.997C191.008 412.997 194.039 414.373 196.369 417.056C198.715 419.757 200.11 423.527 200.11 427.556C200.11 431.584 198.715 435.354 196.369 438.055C194.039 440.737 191.008 442.114 187.989 442.114C186.885 442.114 185.99 443.01 185.989 444.114C185.989 445.219 186.885 446.114 187.989 446.114C192.264 446.114 196.365 444.159 199.389 440.679C202.412 437.199 204.11 432.478 204.11 427.556C204.11 422.634 202.412 417.913 199.389 414.433C196.365 410.952 192.264 408.997 187.989 408.997Z" fill="url(#paint0_linear_2_5)"/>
<path d="M239.104 397C229.417 397 221.518 404.655 221.125 414.246H221.108V457.042C222.844 455.709 224.814 454.72 226.914 454.133C229.333 453.456 231.867 453.327 234.34 453.754C235.428 453.942 236.158 454.976 235.971 456.064C235.783 457.153 234.749 457.883 233.66 457.695C231.773 457.37 229.839 457.469 227.992 457.985C226.145 458.502 224.422 459.427 222.949 460.699C222.273 461.283 221.657 461.935 221.108 462.643V468.984C221.108 472.09 223.626 474.608 226.732 474.608H249.417C249.125 474.173 248.808 473.754 248.466 473.353C247.173 471.839 245.558 470.619 243.734 469.781C241.91 468.944 239.921 468.509 237.906 468.509C236.802 468.509 235.907 467.613 235.906 466.509C235.906 465.404 236.802 464.509 237.906 464.509C240.496 464.509 243.055 465.068 245.403 466.146C247.752 467.225 249.835 468.797 251.507 470.754C252.51 471.928 253.349 473.225 254.009 474.608H271.097C272.622 472.417 274.584 470.571 276.834 469.248C280.181 467.281 283.935 466.601 287.402 467.334C288.483 467.562 289.174 468.624 288.946 469.704C288.718 470.785 287.657 471.475 286.576 471.247C284.18 470.741 281.436 471.183 278.861 472.696C277.961 473.226 277.115 473.871 276.339 474.608H288.594V474.562C293.434 474.09 297.217 470.012 297.217 465.048C297.217 460.844 294.503 457.276 290.732 455.995C290.494 459.017 289.424 461.807 287.626 464.016C286.929 464.872 285.668 465.002 284.812 464.305C283.955 463.607 283.826 462.348 284.523 461.491C286.07 459.592 286.932 456.949 286.764 453.967C286.595 450.978 285.399 447.946 283.355 445.482C281.312 443.019 278.647 441.392 275.934 440.802C273.239 440.215 270.702 440.684 268.715 441.964C267.786 442.562 266.548 442.294 265.95 441.365C265.353 440.437 265.621 439.2 266.549 438.602C269.493 436.705 273.129 436.098 276.784 436.894C278.989 437.373 281.109 438.346 283.01 439.72C283.229 438.387 283.345 437.016 283.345 435.616C283.345 422.572 273.441 411.997 261.225 411.997C261.052 411.997 260.88 411.999 260.709 412.003C261.173 415.287 260.613 418.646 259.124 421.721C257.636 424.793 255.278 427.466 252.326 429.479C251.414 430.101 250.169 429.866 249.547 428.954C248.925 428.042 249.16 426.796 250.072 426.174C252.488 424.526 254.361 422.377 255.523 419.978C256.684 417.581 257.095 415.02 256.747 412.56C256.707 412.274 256.73 411.994 256.805 411.733C255.27 403.352 247.929 397 239.104 397ZM277.946 452.771C278.616 451.892 279.871 451.722 280.75 452.392C281.628 453.061 281.798 454.316 281.129 455.194C279.662 457.12 277.799 458.709 275.672 459.849C273.544 460.989 271.202 461.653 268.81 461.795C266.417 461.937 264.031 461.555 261.818 460.673C259.606 459.791 257.619 458.432 255.997 456.689C255.245 455.881 255.289 454.615 256.098 453.862C256.906 453.11 258.172 453.155 258.925 453.963C260.143 455.272 261.635 456.294 263.299 456.957C264.963 457.62 266.762 457.91 268.572 457.803C270.383 457.695 272.161 457.192 273.782 456.323C275.403 455.455 276.825 454.242 277.946 452.771ZM261.597 428.645C264.078 427.612 266.773 427.204 269.453 427.456C270.552 427.56 271.36 428.534 271.257 429.634C271.153 430.733 270.178 431.541 269.079 431.438C267.049 431.248 265.01 431.557 263.134 432.338C261.258 433.119 259.593 434.351 258.285 435.936C256.977 437.52 256.062 439.412 255.624 441.453C255.186 443.495 255.24 445.622 255.784 447.653C256.07 448.72 255.437 449.816 254.37 450.103C253.303 450.388 252.206 449.755 251.92 448.688C251.212 446.048 251.141 443.278 251.712 440.615C252.283 437.952 253.481 435.472 255.201 433.389C256.922 431.305 259.116 429.677 261.597 428.645ZM246.228 408.997C247.332 408.997 248.227 409.893 248.228 410.997C248.228 412.102 247.332 412.997 246.228 412.997C243.209 412.997 240.178 414.373 237.848 417.056C235.501 419.757 234.107 423.527 234.106 427.556C234.106 431.584 235.502 435.354 237.848 438.055C240.178 440.737 243.209 442.114 246.228 442.114C247.332 442.114 248.227 443.01 248.228 444.114C248.227 445.219 247.332 446.114 246.228 446.114C241.953 446.114 237.852 444.159 234.828 440.679C231.805 437.199 230.106 432.478 230.106 427.556C230.107 422.634 231.805 417.913 234.828 414.433C237.852 410.952 241.953 408.997 246.228 408.997Z" fill="url(#paint1_linear_2_5)"/>
<path d="M147.496 499.371C146.154 499.968 145.542 501.546 146.239 502.84C149.127 508.2 153.356 512.739 158.531 516.003C164.458 519.741 171.361 521.637 178.366 521.452C185.37 521.267 192.163 519.009 197.885 514.963C202.88 511.431 206.864 506.674 209.464 501.169C210.092 499.841 209.397 498.297 208.026 497.771C206.654 497.245 205.126 497.937 204.481 499.257C202.269 503.783 198.95 507.695 194.813 510.62C189.951 514.058 184.178 515.977 178.225 516.134C172.272 516.292 166.406 514.68 161.369 511.503C157.083 508.801 153.562 505.07 151.114 500.667C150.4 499.383 148.838 498.773 147.496 499.371Z" fill="#0D0D7F"/>
<path d="M199.293 545.25C197.952 545.847 197.336 547.429 198.094 548.686C199.823 551.555 202.204 553.993 205.058 555.793C208.665 558.067 212.865 559.221 217.127 559.108C221.389 558.996 225.522 557.622 229.004 555.16C231.759 553.212 234.008 550.652 235.583 547.695C236.273 546.4 235.574 544.853 234.204 544.327C232.834 543.801 231.315 544.501 230.573 545.768C229.41 547.754 227.832 549.48 225.935 550.821C223.312 552.675 220.198 553.711 216.987 553.795C213.775 553.88 210.611 553.011 207.893 551.297C205.929 550.059 204.262 548.419 202.995 546.496C202.187 545.271 200.633 544.652 199.293 545.25Z" fill="#0D0D7F"/>
<path d="M226.604 497.496C225.263 498.093 224.651 499.671 225.347 500.965C228.235 506.325 232.464 510.864 237.639 514.128C243.567 517.866 250.469 519.762 257.474 519.577C264.479 519.392 271.272 517.134 276.993 513.088C281.989 509.556 285.972 504.799 288.573 499.294C289.2 497.966 288.506 496.422 287.134 495.896C285.763 495.37 284.235 496.062 283.59 497.382C281.378 501.908 278.058 505.82 273.922 508.745C269.059 512.183 263.287 514.102 257.333 514.259C251.38 514.417 245.514 512.805 240.477 509.628C236.192 506.926 232.67 503.195 230.222 498.792C229.508 497.508 227.946 496.898 226.604 497.496Z" fill="#0D0D7F"/>
<path d="M276.547 372.997H274.683C274.683 382.609 266.673 386.116 262.668 386.669V388.947C273.109 389.776 275.028 398.684 274.683 403.034H277.169C277.003 392.096 284.695 389.086 288.562 388.947V386.669C279.116 385.177 276.616 376.933 276.547 372.997Z" fill="#0754D9"/>
<path d="M367.547 79H365.683C365.683 88.612 357.673 92.1198 353.668 92.6722V94.9509C364.109 95.7795 366.028 104.687 365.683 109.037H368.169C368.003 98.0996 375.695 95.089 379.562 94.9509V92.6722C370.116 91.1807 367.616 82.9359 367.547 79Z" fill="white"/>
<path d="M202.758 358H201.983C201.983 361.977 198.65 363.429 196.984 363.657V364.6C201.328 364.943 202.126 368.629 201.983 370.429H203.017C202.948 365.903 206.148 364.658 207.756 364.6V363.657C203.827 363.04 202.787 359.629 202.758 358Z" fill="#0D0D7F"/>
<path d="M53.7738 61H52.9982C52.9982 64.9774 49.6661 66.4289 48 66.6575V67.6004C52.3433 67.9432 53.1419 71.6292 52.9982 73.4293H54.0323C53.9634 68.9033 57.1634 67.6575 58.772 67.6004V66.6575C54.8424 66.0403 53.8025 62.6287 53.7738 61Z" fill="#0D0D7F"/>
<path d="M297.507 413.113H296.292C296.292 419.351 291.073 421.628 288.464 421.987V423.466C295.266 424.004 296.517 429.785 296.292 432.609H297.912C297.804 425.509 302.816 423.555 305.335 423.466V421.987C299.181 421.019 297.552 415.667 297.507 413.113Z" fill="#0D0D7F"/>
<path d="M219.043 48H217.828C217.828 54.2386 212.609 56.5154 210 56.8739V58.3529C216.803 58.8907 218.053 64.6722 217.828 67.4957H219.448C219.34 60.3966 224.352 58.4425 226.871 58.3529V56.8739C220.717 55.9059 219.088 50.5546 219.043 48Z" fill="white"/>
<path d="M42.968 29H42.032C42.032 33.8 38.0107 35.5517 36 35.8276V36.9655C41.2416 37.3793 42.2053 41.8276 42.032 44H43.28C43.1968 38.5379 47.0587 37.0345 49 36.9655V35.8276C44.2576 35.0828 43.0027 30.9655 42.968 29Z" fill="white"/>
<path d="M141.518 385.012H140.206C140.206 391.773 134.567 394.241 131.747 394.629V396.232C139.097 396.815 140.449 403.081 140.206 406.141H141.956C141.839 398.447 147.254 396.329 149.977 396.232V394.629C143.327 393.58 141.567 387.78 141.518 385.012Z" fill="#0754D9"/>
<path d="M62.7711 244H61.4585C61.4585 250.762 55.8195 253.229 53 253.618V255.221C60.3502 255.804 61.7016 262.07 61.4585 265.13H63.2086C63.0919 257.436 68.5073 255.318 71.2296 255.221V253.618C64.5794 252.568 62.8197 246.769 62.7711 244Z" fill="white"/>
<circle cx="132.872" cy="430.733" r="7.87187" fill="#0754D9"/>
<circle cx="184.424" cy="381.057" r="3.93594" fill="#0754D9"/>
<circle cx="108.936" cy="90.9359" r="3.93594" fill="white"/>
<circle cx="227.215" cy="383.215" r="6.21464" fill="#0D0D7F"/>
<circle cx="348.215" cy="271.215" r="6.21464" fill="white"/>
<circle cx="283.215" cy="135.215" r="6.21464" fill="white"/>
<circle cx="318.215" cy="89.2181" r="6.21464" fill="#0D0D7F"/>
<path d="M129.054 223.727H135.122L141.531 239.364H141.804L148.213 223.727H154.281V247H149.509V231.852H149.315L143.293 246.886H140.043L134.02 231.795H133.827V247H129.054V223.727ZM158.244 247V229.545H163.085V247H158.244ZM160.676 227.295C159.956 227.295 159.339 227.057 158.824 226.58C158.316 226.095 158.062 225.515 158.062 224.841C158.062 224.174 158.316 223.602 158.824 223.125C159.339 222.64 159.956 222.398 160.676 222.398C161.396 222.398 162.009 222.64 162.517 223.125C163.032 223.602 163.29 224.174 163.29 224.841C163.29 225.515 163.032 226.095 162.517 226.58C162.009 227.057 161.396 227.295 160.676 227.295ZM171.804 236.909V247H166.963V229.545H171.577V232.625H171.781C172.168 231.61 172.815 230.807 173.724 230.216C174.634 229.617 175.736 229.318 177.031 229.318C178.243 229.318 179.3 229.583 180.202 230.114C181.103 230.644 181.804 231.402 182.304 232.386C182.804 233.364 183.054 234.53 183.054 235.886V247H178.213V236.75C178.221 235.682 177.948 234.848 177.395 234.25C176.842 233.644 176.08 233.341 175.111 233.341C174.459 233.341 173.884 233.481 173.384 233.761C172.891 234.042 172.505 234.451 172.224 234.989C171.952 235.519 171.812 236.159 171.804 236.909ZM193.301 247.284C191.975 247.284 190.775 246.943 189.699 246.261C188.631 245.572 187.782 244.561 187.153 243.227C186.532 241.886 186.222 240.242 186.222 238.295C186.222 236.295 186.544 234.633 187.188 233.307C187.831 231.973 188.688 230.977 189.756 230.318C190.831 229.652 192.009 229.318 193.29 229.318C194.267 229.318 195.081 229.485 195.733 229.818C196.392 230.144 196.922 230.553 197.324 231.045C197.733 231.53 198.044 232.008 198.256 232.477H198.403V223.727H203.233V247H198.46V244.205H198.256C198.028 244.689 197.706 245.17 197.29 245.648C196.881 246.117 196.347 246.508 195.688 246.818C195.036 247.129 194.241 247.284 193.301 247.284ZM194.835 243.432C195.616 243.432 196.275 243.22 196.812 242.795C197.358 242.364 197.775 241.761 198.062 240.989C198.358 240.216 198.506 239.311 198.506 238.273C198.506 237.235 198.362 236.333 198.074 235.568C197.786 234.803 197.369 234.212 196.824 233.795C196.278 233.379 195.616 233.17 194.835 233.17C194.04 233.17 193.369 233.386 192.824 233.818C192.278 234.25 191.866 234.848 191.585 235.614C191.305 236.379 191.165 237.265 191.165 238.273C191.165 239.288 191.305 240.186 191.585 240.966C191.873 241.739 192.286 242.345 192.824 242.784C193.369 243.216 194.04 243.432 194.835 243.432ZM219.929 230.42C219.838 229.504 219.448 228.792 218.759 228.284C218.069 227.777 217.134 227.523 215.952 227.523C215.149 227.523 214.471 227.636 213.918 227.864C213.365 228.083 212.94 228.39 212.645 228.784C212.357 229.178 212.213 229.625 212.213 230.125C212.198 230.542 212.285 230.905 212.474 231.216C212.671 231.527 212.94 231.795 213.281 232.023C213.622 232.242 214.016 232.436 214.463 232.602C214.91 232.761 215.387 232.898 215.895 233.011L217.986 233.511C219.001 233.739 219.933 234.042 220.781 234.42C221.63 234.799 222.365 235.265 222.986 235.818C223.607 236.371 224.088 237.023 224.429 237.773C224.777 238.523 224.955 239.383 224.963 240.352C224.955 241.777 224.592 243.011 223.872 244.057C223.16 245.095 222.13 245.902 220.781 246.477C219.44 247.045 217.823 247.33 215.929 247.33C214.05 247.33 212.414 247.042 211.02 246.466C209.634 245.89 208.55 245.038 207.77 243.909C206.997 242.773 206.592 241.367 206.554 239.693H211.315C211.368 240.473 211.592 241.125 211.986 241.648C212.387 242.163 212.921 242.553 213.588 242.818C214.262 243.076 215.024 243.205 215.872 243.205C216.705 243.205 217.429 243.083 218.043 242.841C218.664 242.598 219.145 242.261 219.486 241.83C219.827 241.398 219.997 240.902 219.997 240.341C219.997 239.818 219.842 239.379 219.531 239.023C219.228 238.667 218.781 238.364 218.19 238.114C217.607 237.864 216.891 237.636 216.043 237.432L213.509 236.795C211.546 236.318 209.997 235.572 208.861 234.557C207.724 233.542 207.16 232.174 207.168 230.455C207.16 229.045 207.535 227.814 208.293 226.761C209.058 225.708 210.107 224.886 211.44 224.295C212.774 223.705 214.289 223.409 215.986 223.409C217.713 223.409 219.221 223.705 220.509 224.295C221.804 224.886 222.812 225.708 223.531 226.761C224.251 227.814 224.622 229.034 224.645 230.42H219.929ZM228.182 253.545V229.545H232.955V232.477H233.17C233.383 232.008 233.689 231.53 234.091 231.045C234.5 230.553 235.03 230.144 235.682 229.818C236.341 229.485 237.159 229.318 238.136 229.318C239.409 229.318 240.583 229.652 241.659 230.318C242.735 230.977 243.595 231.973 244.239 233.307C244.883 234.633 245.205 236.295 245.205 238.295C245.205 240.242 244.89 241.886 244.261 243.227C243.64 244.561 242.792 245.572 241.716 246.261C240.648 246.943 239.451 247.284 238.125 247.284C237.186 247.284 236.386 247.129 235.727 246.818C235.076 246.508 234.542 246.117 234.125 245.648C233.708 245.17 233.39 244.689 233.17 244.205H233.023V253.545H228.182ZM232.92 238.273C232.92 239.311 233.064 240.216 233.352 240.989C233.64 241.761 234.057 242.364 234.602 242.795C235.148 243.22 235.811 243.432 236.591 243.432C237.379 243.432 238.045 243.216 238.591 242.784C239.136 242.345 239.549 241.739 239.83 240.966C240.117 240.186 240.261 239.288 240.261 238.273C240.261 237.265 240.121 236.379 239.841 235.614C239.561 234.848 239.148 234.25 238.602 233.818C238.057 233.386 237.386 233.17 236.591 233.17C235.803 233.17 235.136 233.379 234.591 233.795C234.053 234.212 233.64 234.803 233.352 235.568C233.064 236.333 232.92 237.235 232.92 238.273ZM253.409 247.33C252.295 247.33 251.303 247.136 250.432 246.75C249.561 246.356 248.871 245.777 248.364 245.011C247.864 244.239 247.614 243.277 247.614 242.125C247.614 241.155 247.792 240.341 248.148 239.682C248.504 239.023 248.989 238.492 249.602 238.091C250.216 237.689 250.913 237.386 251.693 237.182C252.481 236.977 253.307 236.833 254.17 236.75C255.186 236.644 256.004 236.545 256.625 236.455C257.246 236.356 257.697 236.212 257.977 236.023C258.258 235.833 258.398 235.553 258.398 235.182V235.114C258.398 234.394 258.17 233.837 257.716 233.443C257.269 233.049 256.633 232.852 255.807 232.852C254.936 232.852 254.242 233.045 253.727 233.432C253.212 233.811 252.871 234.288 252.705 234.864L248.227 234.5C248.455 233.439 248.902 232.523 249.568 231.75C250.235 230.97 251.095 230.371 252.148 229.955C253.208 229.53 254.436 229.318 255.83 229.318C256.799 229.318 257.727 229.432 258.614 229.659C259.508 229.886 260.299 230.239 260.989 230.716C261.686 231.193 262.235 231.807 262.636 232.557C263.038 233.299 263.239 234.189 263.239 235.227V247H258.648V244.58H258.511C258.231 245.125 257.856 245.606 257.386 246.023C256.917 246.432 256.352 246.754 255.693 246.989C255.034 247.216 254.273 247.33 253.409 247.33ZM254.795 243.989C255.508 243.989 256.136 243.848 256.682 243.568C257.227 243.28 257.655 242.894 257.966 242.409C258.277 241.924 258.432 241.375 258.432 240.761V238.909C258.28 239.008 258.072 239.098 257.807 239.182C257.549 239.258 257.258 239.33 256.932 239.398C256.606 239.458 256.28 239.515 255.955 239.568C255.629 239.614 255.333 239.655 255.068 239.693C254.5 239.777 254.004 239.909 253.58 240.091C253.155 240.273 252.826 240.519 252.591 240.83C252.356 241.133 252.239 241.511 252.239 241.966C252.239 242.625 252.477 243.129 252.955 243.477C253.439 243.818 254.053 243.989 254.795 243.989ZM274.881 247.341C273.093 247.341 271.555 246.962 270.267 246.205C268.987 245.439 268.002 244.379 267.312 243.023C266.631 241.667 266.29 240.106 266.29 238.341C266.29 236.553 266.634 234.985 267.324 233.636C268.021 232.28 269.009 231.223 270.29 230.466C271.57 229.701 273.093 229.318 274.858 229.318C276.381 229.318 277.714 229.595 278.858 230.148C280.002 230.701 280.907 231.477 281.574 232.477C282.241 233.477 282.608 234.652 282.676 236H278.108C277.979 235.129 277.638 234.428 277.085 233.898C276.54 233.36 275.824 233.091 274.938 233.091C274.188 233.091 273.532 233.295 272.972 233.705C272.419 234.106 271.987 234.693 271.676 235.466C271.366 236.239 271.21 237.174 271.21 238.273C271.21 239.386 271.362 240.333 271.665 241.114C271.975 241.894 272.411 242.489 272.972 242.898C273.532 243.307 274.188 243.511 274.938 243.511C275.491 243.511 275.987 243.398 276.426 243.17C276.873 242.943 277.241 242.614 277.528 242.182C277.824 241.742 278.017 241.216 278.108 240.602H282.676C282.6 241.936 282.237 243.11 281.585 244.125C280.941 245.133 280.051 245.92 278.915 246.489C277.778 247.057 276.434 247.341 274.881 247.341ZM293.73 247.341C291.935 247.341 290.389 246.977 289.094 246.25C287.806 245.515 286.813 244.477 286.116 243.136C285.42 241.788 285.071 240.193 285.071 238.352C285.071 236.557 285.42 234.981 286.116 233.625C286.813 232.269 287.795 231.212 289.06 230.455C290.332 229.697 291.825 229.318 293.537 229.318C294.688 229.318 295.76 229.504 296.753 229.875C297.753 230.239 298.624 230.788 299.366 231.523C300.116 232.258 300.7 233.182 301.116 234.295C301.533 235.402 301.741 236.697 301.741 238.182V239.511H287.003V236.511H297.185C297.185 235.814 297.033 235.197 296.73 234.659C296.427 234.121 296.007 233.701 295.469 233.398C294.938 233.087 294.321 232.932 293.616 232.932C292.882 232.932 292.23 233.102 291.662 233.443C291.101 233.777 290.662 234.227 290.344 234.795C290.026 235.356 289.863 235.981 289.855 236.67V239.523C289.855 240.386 290.014 241.133 290.332 241.761C290.658 242.39 291.116 242.875 291.707 243.216C292.298 243.557 292.999 243.727 293.81 243.727C294.348 243.727 294.84 243.652 295.287 243.5C295.734 243.348 296.116 243.121 296.435 242.818C296.753 242.515 296.995 242.144 297.162 241.705L301.639 242C301.412 243.076 300.946 244.015 300.241 244.818C299.545 245.614 298.643 246.235 297.537 246.682C296.438 247.121 295.17 247.341 293.73 247.341Z" fill="white"/>
<path d="M90.5895 194L83.9304 170.727H89.3054L93.1577 186.898H93.3509L97.6009 170.727H102.203L106.442 186.932H106.646L110.499 170.727H115.874L109.214 194H104.419L99.9872 178.784H99.8054L95.3849 194H90.5895ZM124.496 194.341C122.7 194.341 121.155 193.977 119.859 193.25C118.571 192.515 117.579 191.477 116.882 190.136C116.185 188.788 115.837 187.193 115.837 185.352C115.837 183.557 116.185 181.981 116.882 180.625C117.579 179.269 118.56 178.212 119.825 177.455C121.098 176.697 122.59 176.318 124.303 176.318C125.454 176.318 126.526 176.504 127.518 176.875C128.518 177.239 129.39 177.788 130.132 178.523C130.882 179.258 131.465 180.182 131.882 181.295C132.299 182.402 132.507 183.697 132.507 185.182V186.511H117.768V183.511H127.95C127.95 182.814 127.799 182.197 127.496 181.659C127.193 181.121 126.772 180.701 126.234 180.398C125.704 180.087 125.087 179.932 124.382 179.932C123.647 179.932 122.996 180.102 122.428 180.443C121.867 180.777 121.428 181.227 121.109 181.795C120.791 182.356 120.628 182.981 120.621 183.67V186.523C120.621 187.386 120.78 188.133 121.098 188.761C121.424 189.39 121.882 189.875 122.473 190.216C123.064 190.557 123.765 190.727 124.575 190.727C125.113 190.727 125.606 190.652 126.053 190.5C126.5 190.348 126.882 190.121 127.2 189.818C127.518 189.515 127.761 189.144 127.928 188.705L132.405 189C132.178 190.076 131.712 191.015 131.007 191.818C130.31 192.614 129.409 193.235 128.303 193.682C127.204 194.121 125.935 194.341 124.496 194.341ZM140.507 170.727V194H135.666V170.727H140.507ZM152.271 194.341C150.483 194.341 148.946 193.962 147.658 193.205C146.377 192.439 145.393 191.379 144.703 190.023C144.021 188.667 143.68 187.106 143.68 185.341C143.68 183.553 144.025 181.985 144.714 180.636C145.411 179.28 146.4 178.223 147.68 177.466C148.961 176.701 150.483 176.318 152.249 176.318C153.771 176.318 155.105 176.595 156.249 177.148C157.393 177.701 158.298 178.477 158.964 179.477C159.631 180.477 159.999 181.652 160.067 183H155.499C155.37 182.129 155.029 181.428 154.476 180.898C153.93 180.36 153.214 180.091 152.328 180.091C151.578 180.091 150.923 180.295 150.362 180.705C149.809 181.106 149.377 181.693 149.067 182.466C148.756 183.239 148.601 184.174 148.601 185.273C148.601 186.386 148.752 187.333 149.055 188.114C149.366 188.894 149.802 189.489 150.362 189.898C150.923 190.307 151.578 190.511 152.328 190.511C152.881 190.511 153.377 190.398 153.817 190.17C154.264 189.943 154.631 189.614 154.919 189.182C155.214 188.742 155.408 188.216 155.499 187.602H160.067C159.991 188.936 159.627 190.11 158.976 191.125C158.332 192.133 157.442 192.92 156.305 193.489C155.169 194.057 153.824 194.341 152.271 194.341ZM171.053 194.341C169.287 194.341 167.761 193.966 166.473 193.216C165.193 192.458 164.204 191.405 163.507 190.057C162.81 188.701 162.462 187.129 162.462 185.341C162.462 183.538 162.81 181.962 163.507 180.614C164.204 179.258 165.193 178.205 166.473 177.455C167.761 176.697 169.287 176.318 171.053 176.318C172.818 176.318 174.34 176.697 175.621 177.455C176.909 178.205 177.901 179.258 178.598 180.614C179.295 181.962 179.643 183.538 179.643 185.341C179.643 187.129 179.295 188.701 178.598 190.057C177.901 191.405 176.909 192.458 175.621 193.216C174.34 193.966 172.818 194.341 171.053 194.341ZM171.075 190.591C171.878 190.591 172.549 190.364 173.087 189.909C173.625 189.447 174.03 188.818 174.303 188.023C174.583 187.227 174.723 186.322 174.723 185.307C174.723 184.292 174.583 183.386 174.303 182.591C174.03 181.795 173.625 181.167 173.087 180.705C172.549 180.242 171.878 180.011 171.075 180.011C170.265 180.011 169.583 180.242 169.03 180.705C168.484 181.167 168.071 181.795 167.791 182.591C167.518 183.386 167.382 184.292 167.382 185.307C167.382 186.322 167.518 187.227 167.791 188.023C168.071 188.818 168.484 189.447 169.03 189.909C169.583 190.364 170.265 190.591 171.075 190.591ZM182.791 194V176.545H187.405V179.625H187.609C187.973 178.602 188.579 177.795 189.428 177.205C190.276 176.614 191.291 176.318 192.473 176.318C193.67 176.318 194.689 176.617 195.53 177.216C196.371 177.807 196.931 178.61 197.212 179.625H197.393C197.75 178.625 198.393 177.826 199.325 177.227C200.265 176.621 201.375 176.318 202.655 176.318C204.284 176.318 205.606 176.837 206.621 177.875C207.643 178.905 208.155 180.367 208.155 182.261V194H203.325V183.216C203.325 182.246 203.068 181.519 202.553 181.034C202.037 180.549 201.393 180.307 200.621 180.307C199.742 180.307 199.056 180.587 198.564 181.148C198.071 181.701 197.825 182.432 197.825 183.341V194H193.132V183.114C193.132 182.258 192.886 181.576 192.393 181.068C191.909 180.561 191.268 180.307 190.473 180.307C189.935 180.307 189.45 180.443 189.018 180.716C188.594 180.981 188.257 181.356 188.007 181.841C187.757 182.318 187.632 182.879 187.632 183.523V194H182.791ZM219.933 194.341C218.138 194.341 216.592 193.977 215.297 193.25C214.009 192.515 213.017 191.477 212.32 190.136C211.623 188.788 211.274 187.193 211.274 185.352C211.274 183.557 211.623 181.981 212.32 180.625C213.017 179.269 213.998 178.212 215.263 177.455C216.536 176.697 218.028 176.318 219.74 176.318C220.892 176.318 221.964 176.504 222.956 176.875C223.956 177.239 224.827 177.788 225.57 178.523C226.32 179.258 226.903 180.182 227.32 181.295C227.736 182.402 227.945 183.697 227.945 185.182V186.511H213.206V183.511H223.388C223.388 182.814 223.236 182.197 222.933 181.659C222.63 181.121 222.21 180.701 221.672 180.398C221.142 180.087 220.524 179.932 219.82 179.932C219.085 179.932 218.433 180.102 217.865 180.443C217.304 180.777 216.865 181.227 216.547 181.795C216.229 182.356 216.066 182.981 216.058 183.67V186.523C216.058 187.386 216.217 188.133 216.536 188.761C216.861 189.39 217.32 189.875 217.911 190.216C218.501 190.557 219.202 190.727 220.013 190.727C220.551 190.727 221.043 190.652 221.49 190.5C221.937 190.348 222.32 190.121 222.638 189.818C222.956 189.515 223.198 189.144 223.365 188.705L227.842 189C227.615 190.076 227.149 191.015 226.445 191.818C225.748 192.614 224.846 193.235 223.74 193.682C222.642 194.121 221.373 194.341 219.933 194.341ZM247.794 176.545V180.182H237.283V176.545H247.794ZM239.669 172.364H244.51V188.636C244.51 189.083 244.578 189.432 244.714 189.682C244.851 189.924 245.04 190.095 245.283 190.193C245.533 190.292 245.821 190.341 246.146 190.341C246.374 190.341 246.601 190.322 246.828 190.284C247.055 190.239 247.23 190.205 247.351 190.182L248.112 193.784C247.87 193.86 247.529 193.947 247.089 194.045C246.65 194.152 246.116 194.216 245.487 194.239C244.321 194.284 243.298 194.129 242.419 193.773C241.548 193.417 240.87 192.864 240.385 192.114C239.9 191.364 239.661 190.417 239.669 189.273V172.364ZM258.646 194.341C256.881 194.341 255.355 193.966 254.067 193.216C252.786 192.458 251.798 191.405 251.101 190.057C250.404 188.701 250.055 187.129 250.055 185.341C250.055 183.538 250.404 181.962 251.101 180.614C251.798 179.258 252.786 178.205 254.067 177.455C255.355 176.697 256.881 176.318 258.646 176.318C260.411 176.318 261.934 176.697 263.214 177.455C264.502 178.205 265.495 179.258 266.192 180.614C266.889 181.962 267.237 183.538 267.237 185.341C267.237 187.129 266.889 188.701 266.192 190.057C265.495 191.405 264.502 192.458 263.214 193.216C261.934 193.966 260.411 194.341 258.646 194.341ZM258.669 190.591C259.472 190.591 260.143 190.364 260.68 189.909C261.218 189.447 261.624 188.818 261.896 188.023C262.177 187.227 262.317 186.322 262.317 185.307C262.317 184.292 262.177 183.386 261.896 182.591C261.624 181.795 261.218 181.167 260.68 180.705C260.143 180.242 259.472 180.011 258.669 180.011C257.858 180.011 257.177 180.242 256.624 180.705C256.078 181.167 255.665 181.795 255.385 182.591C255.112 183.386 254.976 184.292 254.976 185.307C254.976 186.322 255.112 187.227 255.385 188.023C255.665 188.818 256.078 189.447 256.624 189.909C257.177 190.364 257.858 190.591 258.669 190.591ZM280.78 200.545C280.166 200.545 279.59 200.496 279.053 200.398C278.522 200.307 278.083 200.189 277.734 200.045L278.825 196.432C279.393 196.606 279.905 196.701 280.359 196.716C280.821 196.731 281.219 196.625 281.553 196.398C281.893 196.17 282.17 195.784 282.382 195.239L282.666 194.5L276.405 176.545H281.496L285.109 189.364H285.291L288.939 176.545H294.064L287.28 195.886C286.954 196.826 286.511 197.644 285.95 198.341C285.397 199.045 284.696 199.587 283.848 199.966C283 200.352 281.977 200.545 280.78 200.545ZM303.865 194.341C302.1 194.341 300.573 193.966 299.286 193.216C298.005 192.458 297.017 191.405 296.32 190.057C295.623 188.701 295.274 187.129 295.274 185.341C295.274 183.538 295.623 181.962 296.32 180.614C297.017 179.258 298.005 178.205 299.286 177.455C300.573 176.697 302.1 176.318 303.865 176.318C305.63 176.318 307.153 176.697 308.433 177.455C309.721 178.205 310.714 179.258 311.411 180.614C312.107 181.962 312.456 183.538 312.456 185.341C312.456 187.129 312.107 188.701 311.411 190.057C310.714 191.405 309.721 192.458 308.433 193.216C307.153 193.966 305.63 194.341 303.865 194.341ZM303.888 190.591C304.691 190.591 305.361 190.364 305.899 189.909C306.437 189.447 306.842 188.818 307.115 188.023C307.395 187.227 307.536 186.322 307.536 185.307C307.536 184.292 307.395 183.386 307.115 182.591C306.842 181.795 306.437 181.167 305.899 180.705C305.361 180.242 304.691 180.011 303.888 180.011C303.077 180.011 302.395 180.242 301.842 180.705C301.297 181.167 300.884 181.795 300.604 182.591C300.331 183.386 300.195 184.292 300.195 185.307C300.195 186.322 300.331 187.227 300.604 188.023C300.884 188.818 301.297 189.447 301.842 189.909C302.395 190.364 303.077 190.591 303.888 190.591ZM326.797 186.568V176.545H331.638V194H326.99V190.83H326.808C326.414 191.852 325.759 192.674 324.842 193.295C323.933 193.917 322.823 194.227 321.513 194.227C320.346 194.227 319.32 193.962 318.433 193.432C317.547 192.902 316.854 192.148 316.354 191.17C315.861 190.193 315.611 189.023 315.604 187.659V176.545H320.445V186.795C320.452 187.826 320.729 188.64 321.274 189.239C321.82 189.837 322.551 190.136 323.467 190.136C324.051 190.136 324.596 190.004 325.104 189.739C325.611 189.466 326.02 189.064 326.331 188.534C326.649 188.004 326.804 187.348 326.797 186.568ZM335.51 194V176.545H340.203V179.591H340.385C340.703 178.508 341.237 177.689 341.987 177.136C342.737 176.576 343.601 176.295 344.578 176.295C344.821 176.295 345.082 176.311 345.362 176.341C345.643 176.371 345.889 176.413 346.101 176.466V180.761C345.874 180.693 345.559 180.633 345.158 180.58C344.756 180.527 344.389 180.5 344.055 180.5C343.343 180.5 342.707 180.655 342.146 180.966C341.593 181.269 341.154 181.693 340.828 182.239C340.51 182.784 340.351 183.413 340.351 184.125V194H335.51Z" fill="white"/>
<path d="M86.8466 677V665.364H93.8239V666.614H88.2557V670.545H93.3011V671.795H88.2557V677H86.8466ZM96.0554 677V668.273H97.3963V677H96.0554ZM96.7372 666.818C96.4759 666.818 96.2505 666.729 96.0611 666.551C95.8755 666.373 95.7827 666.159 95.7827 665.909C95.7827 665.659 95.8755 665.445 96.0611 665.267C96.2505 665.089 96.4759 665 96.7372 665C96.9986 665 97.2221 665.089 97.4077 665.267C97.5971 665.445 97.6918 665.659 97.6918 665.909C97.6918 666.159 97.5971 666.373 97.4077 666.551C97.2221 666.729 96.9986 666.818 96.7372 666.818ZM101.193 671.75V677H99.8523V668.273H101.148V669.636H101.261C101.466 669.193 101.777 668.837 102.193 668.568C102.61 668.295 103.148 668.159 103.807 668.159C104.398 668.159 104.915 668.28 105.358 668.523C105.801 668.761 106.146 669.125 106.392 669.614C106.638 670.098 106.761 670.712 106.761 671.455V677H105.42V671.545C105.42 670.86 105.242 670.326 104.886 669.943C104.53 669.557 104.042 669.364 103.42 669.364C102.992 669.364 102.61 669.456 102.273 669.642C101.939 669.828 101.676 670.098 101.483 670.455C101.29 670.811 101.193 671.242 101.193 671.75ZM112.507 677.182C111.78 677.182 111.138 676.998 110.581 676.631C110.024 676.259 109.589 675.737 109.274 675.062C108.96 674.384 108.803 673.583 108.803 672.659C108.803 671.742 108.96 670.947 109.274 670.273C109.589 669.598 110.026 669.078 110.587 668.71C111.147 668.343 111.795 668.159 112.53 668.159C113.098 668.159 113.547 668.254 113.876 668.443C114.21 668.629 114.464 668.841 114.638 669.08C114.816 669.314 114.954 669.508 115.053 669.659H115.166V665.364H116.507V677H115.212V675.659H115.053C114.954 675.818 114.814 676.019 114.632 676.261C114.45 676.5 114.191 676.714 113.854 676.903C113.517 677.089 113.068 677.182 112.507 677.182ZM112.689 675.977C113.227 675.977 113.681 675.837 114.053 675.557C114.424 675.273 114.706 674.881 114.899 674.381C115.092 673.877 115.189 673.295 115.189 672.636C115.189 671.985 115.094 671.415 114.905 670.926C114.715 670.434 114.435 670.051 114.064 669.778C113.693 669.502 113.234 669.364 112.689 669.364C112.121 669.364 111.647 669.509 111.268 669.801C110.893 670.089 110.611 670.481 110.422 670.977C110.236 671.47 110.143 672.023 110.143 672.636C110.143 673.258 110.238 673.822 110.428 674.33C110.621 674.833 110.905 675.235 111.28 675.534C111.659 675.83 112.128 675.977 112.689 675.977ZM123.649 680.273V668.273H124.945V669.659H125.104C125.202 669.508 125.339 669.314 125.513 669.08C125.691 668.841 125.945 668.629 126.274 668.443C126.607 668.254 127.058 668.159 127.626 668.159C128.361 668.159 129.009 668.343 129.57 668.71C130.13 669.078 130.568 669.598 130.882 670.273C131.196 670.947 131.354 671.742 131.354 672.659C131.354 673.583 131.196 674.384 130.882 675.062C130.568 675.737 130.132 676.259 129.575 676.631C129.018 676.998 128.376 677.182 127.649 677.182C127.089 677.182 126.64 677.089 126.303 676.903C125.965 676.714 125.706 676.5 125.524 676.261C125.342 676.019 125.202 675.818 125.104 675.659H124.99V680.273H123.649ZM124.967 672.636C124.967 673.295 125.064 673.877 125.257 674.381C125.45 674.881 125.732 675.273 126.104 675.557C126.475 675.837 126.929 675.977 127.467 675.977C128.028 675.977 128.496 675.83 128.871 675.534C129.25 675.235 129.534 674.833 129.723 674.33C129.916 673.822 130.013 673.258 130.013 672.636C130.013 672.023 129.918 671.47 129.729 670.977C129.543 670.481 129.261 670.089 128.882 669.801C128.507 669.509 128.036 669.364 127.467 669.364C126.922 669.364 126.464 669.502 126.092 669.778C125.721 670.051 125.441 670.434 125.251 670.926C125.062 671.415 124.967 671.985 124.967 672.636ZM137.058 677.182C136.217 677.182 135.492 676.996 134.882 676.625C134.276 676.25 133.808 675.727 133.479 675.057C133.153 674.383 132.99 673.598 132.99 672.705C132.99 671.811 133.153 671.023 133.479 670.341C133.808 669.655 134.267 669.121 134.854 668.739C135.445 668.352 136.134 668.159 136.922 668.159C137.376 668.159 137.825 668.235 138.268 668.386C138.712 668.538 139.115 668.784 139.479 669.125C139.842 669.462 140.132 669.909 140.348 670.466C140.564 671.023 140.672 671.708 140.672 672.523V673.091H133.945V671.932H139.308C139.308 671.439 139.21 671 139.013 670.614C138.82 670.227 138.543 669.922 138.183 669.699C137.827 669.475 137.407 669.364 136.922 669.364C136.388 669.364 135.926 669.496 135.536 669.761C135.149 670.023 134.852 670.364 134.643 670.784C134.435 671.205 134.331 671.655 134.331 672.136V672.909C134.331 673.568 134.445 674.127 134.672 674.585C134.903 675.04 135.223 675.386 135.632 675.625C136.041 675.86 136.517 675.977 137.058 675.977C137.411 675.977 137.729 675.928 138.013 675.83C138.301 675.727 138.549 675.576 138.757 675.375C138.965 675.17 139.126 674.917 139.24 674.614L140.536 674.977C140.399 675.417 140.17 675.803 139.848 676.136C139.526 676.466 139.128 676.723 138.655 676.909C138.181 677.091 137.649 677.182 137.058 677.182ZM145.28 677.205C144.727 677.205 144.225 677.1 143.774 676.892C143.323 676.68 142.965 676.375 142.7 675.977C142.435 675.576 142.303 675.091 142.303 674.523C142.303 674.023 142.401 673.617 142.598 673.307C142.795 672.992 143.058 672.746 143.388 672.568C143.717 672.39 144.081 672.258 144.479 672.17C144.88 672.08 145.284 672.008 145.689 671.955C146.219 671.886 146.649 671.835 146.979 671.801C147.312 671.763 147.554 671.701 147.706 671.614C147.861 671.527 147.939 671.375 147.939 671.159V671.114C147.939 670.553 147.786 670.117 147.479 669.807C147.176 669.496 146.715 669.341 146.098 669.341C145.458 669.341 144.956 669.481 144.592 669.761C144.229 670.042 143.973 670.341 143.825 670.659L142.553 670.205C142.78 669.674 143.083 669.261 143.462 668.966C143.844 668.667 144.261 668.458 144.712 668.341C145.166 668.22 145.613 668.159 146.053 668.159C146.333 668.159 146.655 668.193 147.018 668.261C147.386 668.326 147.74 668.46 148.081 668.665C148.426 668.869 148.712 669.178 148.939 669.591C149.166 670.004 149.28 670.557 149.28 671.25V677H147.939V675.818H147.871C147.78 676.008 147.628 676.21 147.416 676.426C147.204 676.642 146.922 676.826 146.57 676.977C146.217 677.129 145.787 677.205 145.28 677.205ZM145.484 676C146.015 676 146.462 675.896 146.825 675.688C147.193 675.479 147.469 675.21 147.655 674.881C147.844 674.551 147.939 674.205 147.939 673.841V672.614C147.882 672.682 147.757 672.744 147.564 672.801C147.375 672.854 147.155 672.902 146.905 672.943C146.659 672.981 146.418 673.015 146.183 673.045C145.952 673.072 145.765 673.095 145.621 673.114C145.272 673.159 144.946 673.233 144.643 673.335C144.344 673.434 144.102 673.583 143.916 673.784C143.734 673.981 143.643 674.25 143.643 674.591C143.643 675.057 143.816 675.409 144.161 675.648C144.509 675.883 144.95 676 145.484 676ZM155.273 677.182C154.455 677.182 153.75 676.989 153.159 676.602C152.568 676.216 152.114 675.684 151.795 675.006C151.477 674.328 151.318 673.553 151.318 672.682C151.318 671.795 151.481 671.013 151.807 670.335C152.136 669.653 152.595 669.121 153.182 668.739C153.773 668.352 154.462 668.159 155.25 668.159C155.864 668.159 156.417 668.273 156.909 668.5C157.402 668.727 157.805 669.045 158.119 669.455C158.434 669.864 158.629 670.341 158.705 670.886H157.364C157.261 670.489 157.034 670.136 156.682 669.83C156.333 669.519 155.864 669.364 155.273 669.364C154.75 669.364 154.292 669.5 153.898 669.773C153.508 670.042 153.203 670.422 152.983 670.915C152.767 671.403 152.659 671.977 152.659 672.636C152.659 673.311 152.765 673.898 152.977 674.398C153.193 674.898 153.496 675.286 153.886 675.562C154.28 675.839 154.742 675.977 155.273 675.977C155.621 675.977 155.938 675.917 156.222 675.795C156.506 675.674 156.746 675.5 156.943 675.273C157.14 675.045 157.28 674.773 157.364 674.455H158.705C158.629 674.97 158.441 675.434 158.142 675.847C157.847 676.256 157.455 676.581 156.966 676.824C156.481 677.062 155.917 677.182 155.273 677.182ZM164.324 677.182C163.483 677.182 162.758 676.996 162.148 676.625C161.542 676.25 161.074 675.727 160.744 675.057C160.419 674.383 160.256 673.598 160.256 672.705C160.256 671.811 160.419 671.023 160.744 670.341C161.074 669.655 161.532 669.121 162.119 668.739C162.71 668.352 163.4 668.159 164.188 668.159C164.642 668.159 165.091 668.235 165.534 668.386C165.977 668.538 166.381 668.784 166.744 669.125C167.108 669.462 167.398 669.909 167.614 670.466C167.83 671.023 167.938 671.708 167.938 672.523V673.091H161.21V671.932H166.574C166.574 671.439 166.475 671 166.278 670.614C166.085 670.227 165.809 669.922 165.449 669.699C165.093 669.475 164.672 669.364 164.188 669.364C163.653 669.364 163.191 669.496 162.801 669.761C162.415 670.023 162.117 670.364 161.909 670.784C161.701 671.205 161.597 671.655 161.597 672.136V672.909C161.597 673.568 161.71 674.127 161.938 674.585C162.169 675.04 162.489 675.386 162.898 675.625C163.307 675.86 163.782 675.977 164.324 675.977C164.676 675.977 164.994 675.928 165.278 675.83C165.566 675.727 165.814 675.576 166.023 675.375C166.231 675.17 166.392 674.917 166.506 674.614L167.801 674.977C167.665 675.417 167.436 675.803 167.114 676.136C166.792 676.466 166.394 676.723 165.92 676.909C165.447 677.091 164.915 677.182 164.324 677.182ZM177.045 677.205C176.492 677.205 175.991 677.1 175.54 676.892C175.089 676.68 174.731 676.375 174.466 675.977C174.201 675.576 174.068 675.091 174.068 674.523C174.068 674.023 174.167 673.617 174.364 673.307C174.561 672.992 174.824 672.746 175.153 672.568C175.483 672.39 175.847 672.258 176.244 672.17C176.646 672.08 177.049 672.008 177.455 671.955C177.985 671.886 178.415 671.835 178.744 671.801C179.078 671.763 179.32 671.701 179.472 671.614C179.627 671.527 179.705 671.375 179.705 671.159V671.114C179.705 670.553 179.551 670.117 179.244 669.807C178.941 669.496 178.481 669.341 177.864 669.341C177.223 669.341 176.722 669.481 176.358 669.761C175.994 670.042 175.739 670.341 175.591 670.659L174.318 670.205C174.545 669.674 174.848 669.261 175.227 668.966C175.61 668.667 176.027 668.458 176.477 668.341C176.932 668.22 177.379 668.159 177.818 668.159C178.098 668.159 178.42 668.193 178.784 668.261C179.152 668.326 179.506 668.46 179.847 668.665C180.191 668.869 180.477 669.178 180.705 669.591C180.932 670.004 181.045 670.557 181.045 671.25V677H179.705V675.818H179.636C179.545 676.008 179.394 676.21 179.182 676.426C178.97 676.642 178.688 676.826 178.335 676.977C177.983 677.129 177.553 677.205 177.045 677.205ZM177.25 676C177.78 676 178.227 675.896 178.591 675.688C178.958 675.479 179.235 675.21 179.42 674.881C179.61 674.551 179.705 674.205 179.705 673.841V672.614C179.648 672.682 179.523 672.744 179.33 672.801C179.14 672.854 178.92 672.902 178.67 672.943C178.424 672.981 178.184 673.015 177.949 673.045C177.718 673.072 177.53 673.095 177.386 673.114C177.038 673.159 176.712 673.233 176.409 673.335C176.11 673.434 175.867 673.583 175.682 673.784C175.5 673.981 175.409 674.25 175.409 674.591C175.409 675.057 175.581 675.409 175.926 675.648C176.275 675.883 176.716 676 177.25 676ZM184.834 671.75V677H183.493V668.273H184.788V669.636H184.902C185.107 669.193 185.417 668.837 185.834 668.568C186.25 668.295 186.788 668.159 187.447 668.159C188.038 668.159 188.555 668.28 188.999 668.523C189.442 668.761 189.786 669.125 190.033 669.614C190.279 670.098 190.402 670.712 190.402 671.455V677H189.061V671.545C189.061 670.86 188.883 670.326 188.527 669.943C188.171 669.557 187.682 669.364 187.061 669.364C186.633 669.364 186.25 669.456 185.913 669.642C185.58 669.828 185.317 670.098 185.124 670.455C184.93 670.811 184.834 671.242 184.834 671.75ZM196.148 677.182C195.42 677.182 194.778 676.998 194.222 676.631C193.665 676.259 193.229 675.737 192.915 675.062C192.6 674.384 192.443 673.583 192.443 672.659C192.443 671.742 192.6 670.947 192.915 670.273C193.229 669.598 193.667 669.078 194.227 668.71C194.788 668.343 195.436 668.159 196.17 668.159C196.739 668.159 197.188 668.254 197.517 668.443C197.85 668.629 198.104 668.841 198.278 669.08C198.456 669.314 198.595 669.508 198.693 669.659H198.807V665.364H200.148V677H198.852V675.659H198.693C198.595 675.818 198.455 676.019 198.273 676.261C198.091 676.5 197.831 676.714 197.494 676.903C197.157 677.089 196.708 677.182 196.148 677.182ZM196.33 675.977C196.867 675.977 197.322 675.837 197.693 675.557C198.064 675.273 198.347 674.881 198.54 674.381C198.733 673.877 198.83 673.295 198.83 672.636C198.83 671.985 198.735 671.415 198.545 670.926C198.356 670.434 198.076 670.051 197.705 669.778C197.333 669.502 196.875 669.364 196.33 669.364C195.761 669.364 195.288 669.509 194.909 669.801C194.534 670.089 194.252 670.481 194.062 670.977C193.877 671.47 193.784 672.023 193.784 672.636C193.784 673.258 193.879 673.822 194.068 674.33C194.261 674.833 194.545 675.235 194.92 675.534C195.299 675.83 195.769 675.977 196.33 675.977ZM210.835 677.182C210.017 677.182 209.313 676.989 208.722 676.602C208.131 676.216 207.676 675.684 207.358 675.006C207.04 674.328 206.881 673.553 206.881 672.682C206.881 671.795 207.044 671.013 207.369 670.335C207.699 669.653 208.157 669.121 208.744 668.739C209.335 668.352 210.025 668.159 210.812 668.159C211.426 668.159 211.979 668.273 212.472 668.5C212.964 668.727 213.367 669.045 213.682 669.455C213.996 669.864 214.191 670.341 214.267 670.886H212.926C212.824 670.489 212.597 670.136 212.244 669.83C211.896 669.519 211.426 669.364 210.835 669.364C210.313 669.364 209.854 669.5 209.46 669.773C209.07 670.042 208.765 670.422 208.545 670.915C208.33 671.403 208.222 671.977 208.222 672.636C208.222 673.311 208.328 673.898 208.54 674.398C208.756 674.898 209.059 675.286 209.449 675.562C209.843 675.839 210.305 675.977 210.835 675.977C211.184 675.977 211.5 675.917 211.784 675.795C212.068 675.674 212.309 675.5 212.506 675.273C212.703 675.045 212.843 674.773 212.926 674.455H214.267C214.191 674.97 214.004 675.434 213.705 675.847C213.409 676.256 213.017 676.581 212.528 676.824C212.044 677.062 211.479 677.182 210.835 677.182ZM217.568 665.364V677H216.227V665.364H217.568ZM222.592 677.205C222.039 677.205 221.537 677.1 221.087 676.892C220.636 676.68 220.278 676.375 220.013 675.977C219.748 675.576 219.615 675.091 219.615 674.523C219.615 674.023 219.714 673.617 219.911 673.307C220.107 672.992 220.371 672.746 220.7 672.568C221.03 672.39 221.393 672.258 221.791 672.17C222.193 672.08 222.596 672.008 223.001 671.955C223.532 671.886 223.962 671.835 224.291 671.801C224.625 671.763 224.867 671.701 225.018 671.614C225.174 671.527 225.251 671.375 225.251 671.159V671.114C225.251 670.553 225.098 670.117 224.791 669.807C224.488 669.496 224.028 669.341 223.411 669.341C222.77 669.341 222.268 669.481 221.905 669.761C221.541 670.042 221.286 670.341 221.138 670.659L219.865 670.205C220.092 669.674 220.395 669.261 220.774 668.966C221.157 668.667 221.573 668.458 222.024 668.341C222.479 668.22 222.926 668.159 223.365 668.159C223.645 668.159 223.967 668.193 224.331 668.261C224.698 668.326 225.053 668.46 225.393 668.665C225.738 668.869 226.024 669.178 226.251 669.591C226.479 670.004 226.592 670.557 226.592 671.25V677H225.251V675.818H225.183C225.092 676.008 224.941 676.21 224.729 676.426C224.517 676.642 224.234 676.826 223.882 676.977C223.53 677.129 223.1 677.205 222.592 677.205ZM222.797 676C223.327 676 223.774 675.896 224.138 675.688C224.505 675.479 224.782 675.21 224.967 674.881C225.157 674.551 225.251 674.205 225.251 673.841V672.614C225.195 672.682 225.07 672.744 224.876 672.801C224.687 672.854 224.467 672.902 224.217 672.943C223.971 672.981 223.731 673.015 223.496 673.045C223.265 673.072 223.077 673.095 222.933 673.114C222.585 673.159 222.259 673.233 221.956 673.335C221.657 673.434 221.414 673.583 221.229 673.784C221.047 673.981 220.956 674.25 220.956 674.591C220.956 675.057 221.128 675.409 221.473 675.648C221.821 675.883 222.263 676 222.797 676ZM229.04 677V668.273H230.335V669.591H230.426C230.585 669.159 230.873 668.809 231.29 668.54C231.706 668.271 232.176 668.136 232.699 668.136C232.797 668.136 232.92 668.138 233.068 668.142C233.216 668.146 233.328 668.152 233.403 668.159V669.523C233.358 669.511 233.254 669.494 233.091 669.472C232.932 669.445 232.763 669.432 232.585 669.432C232.161 669.432 231.782 669.521 231.449 669.699C231.119 669.873 230.858 670.116 230.665 670.426C230.475 670.733 230.381 671.083 230.381 671.477V677H229.04ZM234.993 677V668.273H236.334V677H234.993ZM235.675 666.818C235.413 666.818 235.188 666.729 234.999 666.551C234.813 666.373 234.72 666.159 234.72 665.909C234.72 665.659 234.813 665.445 234.999 665.267C235.188 665.089 235.413 665 235.675 665C235.936 665 236.16 665.089 236.345 665.267C236.535 665.445 236.629 665.659 236.629 665.909C236.629 666.159 236.535 666.373 236.345 666.551C236.16 666.729 235.936 666.818 235.675 666.818ZM242.585 668.273V669.409H238.062V668.273H242.585ZM239.381 666.182H240.722V674.5C240.722 674.879 240.777 675.163 240.886 675.352C241 675.538 241.144 675.663 241.318 675.727C241.496 675.788 241.684 675.818 241.881 675.818C242.028 675.818 242.15 675.811 242.244 675.795C242.339 675.777 242.415 675.761 242.472 675.75L242.744 676.955C242.653 676.989 242.527 677.023 242.364 677.057C242.201 677.095 241.994 677.114 241.744 677.114C241.366 677.114 240.994 677.032 240.631 676.869C240.271 676.706 239.972 676.458 239.733 676.125C239.498 675.792 239.381 675.371 239.381 674.864V666.182ZM245.466 680.273C245.239 680.273 245.036 680.254 244.858 680.216C244.68 680.182 244.557 680.148 244.489 680.114L244.83 678.932C245.155 679.015 245.443 679.045 245.693 679.023C245.943 679 246.165 678.888 246.358 678.688C246.555 678.491 246.735 678.17 246.898 677.727L247.148 677.045L243.92 668.273H245.375L247.784 675.227H247.875L250.284 668.273H251.739L248.034 678.273C247.867 678.723 247.661 679.097 247.415 679.392C247.169 679.691 246.883 679.913 246.557 680.057C246.235 680.201 245.871 680.273 245.466 680.273ZM259.986 677L257.327 668.273H258.736L260.622 674.955H260.713L262.577 668.273H264.009L265.849 674.932H265.94L267.827 668.273H269.236L266.577 677H265.259L263.349 670.295H263.213L261.304 677H259.986ZM271.009 677V668.273H272.349V677H271.009ZM271.69 666.818C271.429 666.818 271.204 666.729 271.014 666.551C270.829 666.373 270.736 666.159 270.736 665.909C270.736 665.659 270.829 665.445 271.014 665.267C271.204 665.089 271.429 665 271.69 665C271.952 665 272.175 665.089 272.361 665.267C272.55 665.445 272.645 665.659 272.645 665.909C272.645 666.159 272.55 666.373 272.361 666.551C272.175 666.729 271.952 666.818 271.69 666.818ZM278.601 668.273V669.409H274.078V668.273H278.601ZM275.396 666.182H276.737V674.5C276.737 674.879 276.792 675.163 276.902 675.352C277.016 675.538 277.16 675.663 277.334 675.727C277.512 675.788 277.699 675.818 277.896 675.818C278.044 675.818 278.165 675.811 278.26 675.795C278.355 675.777 278.43 675.761 278.487 675.75L278.76 676.955C278.669 676.989 278.542 677.023 278.379 677.057C278.216 677.095 278.01 677.114 277.76 677.114C277.381 677.114 277.01 677.032 276.646 676.869C276.286 676.706 275.987 676.458 275.749 676.125C275.514 675.792 275.396 675.371 275.396 674.864V666.182ZM282.146 671.75V677H280.805V665.364H282.146V669.636H282.26C282.464 669.186 282.771 668.828 283.18 668.562C283.593 668.294 284.143 668.159 284.828 668.159C285.423 668.159 285.944 668.278 286.391 668.517C286.838 668.752 287.184 669.114 287.43 669.602C287.68 670.087 287.805 670.705 287.805 671.455V677H286.464V671.545C286.464 670.852 286.285 670.316 285.925 669.938C285.569 669.555 285.074 669.364 284.442 669.364C284.002 669.364 283.608 669.456 283.26 669.642C282.915 669.828 282.643 670.098 282.442 670.455C282.245 670.811 282.146 671.242 282.146 671.75ZM298.281 680.455C297.634 680.455 297.077 680.371 296.611 680.205C296.145 680.042 295.757 679.826 295.446 679.557C295.139 679.292 294.895 679.008 294.713 678.705L295.781 677.955C295.902 678.114 296.056 678.295 296.241 678.5C296.427 678.708 296.681 678.888 297.003 679.04C297.329 679.195 297.755 679.273 298.281 679.273C298.986 679.273 299.567 679.102 300.026 678.761C300.484 678.42 300.713 677.886 300.713 677.159V675.386H300.599C300.501 675.545 300.361 675.742 300.179 675.977C300.001 676.208 299.743 676.415 299.406 676.597C299.073 676.775 298.622 676.864 298.054 676.864C297.349 676.864 296.717 676.697 296.156 676.364C295.599 676.03 295.158 675.545 294.832 674.909C294.51 674.273 294.349 673.5 294.349 672.591C294.349 671.697 294.507 670.919 294.821 670.256C295.135 669.589 295.573 669.074 296.134 668.71C296.694 668.343 297.342 668.159 298.077 668.159C298.645 668.159 299.096 668.254 299.429 668.443C299.766 668.629 300.024 668.841 300.202 669.08C300.384 669.314 300.524 669.508 300.622 669.659H300.759V668.273H302.054V677.25C302.054 678 301.884 678.61 301.543 679.08C301.205 679.553 300.751 679.9 300.179 680.119C299.611 680.343 298.978 680.455 298.281 680.455ZM298.236 675.659C298.774 675.659 299.228 675.536 299.599 675.29C299.971 675.044 300.253 674.689 300.446 674.227C300.639 673.765 300.736 673.212 300.736 672.568C300.736 671.939 300.641 671.384 300.452 670.903C300.262 670.422 299.982 670.045 299.611 669.773C299.24 669.5 298.781 669.364 298.236 669.364C297.668 669.364 297.194 669.508 296.815 669.795C296.44 670.083 296.158 670.47 295.969 670.955C295.783 671.439 295.69 671.977 295.69 672.568C295.69 673.174 295.785 673.71 295.974 674.176C296.168 674.638 296.452 675.002 296.827 675.267C297.205 675.528 297.675 675.659 298.236 675.659ZM310.009 673.432V668.273H311.349V677H310.009V675.523H309.918C309.713 675.966 309.395 676.343 308.963 676.653C308.531 676.96 307.986 677.114 307.327 677.114C306.781 677.114 306.296 676.994 305.872 676.756C305.448 676.513 305.115 676.15 304.872 675.665C304.63 675.176 304.509 674.561 304.509 673.818V668.273H305.849V673.727C305.849 674.364 306.027 674.871 306.384 675.25C306.743 675.629 307.202 675.818 307.759 675.818C308.092 675.818 308.431 675.733 308.776 675.562C309.124 675.392 309.416 675.131 309.651 674.778C309.889 674.426 310.009 673.977 310.009 673.432ZM313.805 677V668.273H315.146V677H313.805ZM314.487 666.818C314.226 666.818 314 666.729 313.811 666.551C313.625 666.373 313.533 666.159 313.533 665.909C313.533 665.659 313.625 665.445 313.811 665.267C314 665.089 314.226 665 314.487 665C314.749 665 314.972 665.089 315.158 665.267C315.347 665.445 315.442 665.659 315.442 665.909C315.442 666.159 315.347 666.373 315.158 666.551C314.972 666.729 314.749 666.818 314.487 666.818ZM320.898 677.182C320.17 677.182 319.528 676.998 318.972 676.631C318.415 676.259 317.979 675.737 317.665 675.062C317.35 674.384 317.193 673.583 317.193 672.659C317.193 671.742 317.35 670.947 317.665 670.273C317.979 669.598 318.417 669.078 318.977 668.71C319.538 668.343 320.186 668.159 320.92 668.159C321.489 668.159 321.938 668.254 322.267 668.443C322.6 668.629 322.854 668.841 323.028 669.08C323.206 669.314 323.345 669.508 323.443 669.659H323.557V665.364H324.898V677H323.602V675.659H323.443C323.345 675.818 323.205 676.019 323.023 676.261C322.841 676.5 322.581 676.714 322.244 676.903C321.907 677.089 321.458 677.182 320.898 677.182ZM321.08 675.977C321.617 675.977 322.072 675.837 322.443 675.557C322.814 675.273 323.097 674.881 323.29 674.381C323.483 673.877 323.58 673.295 323.58 672.636C323.58 671.985 323.485 671.415 323.295 670.926C323.106 670.434 322.826 670.051 322.455 669.778C322.083 669.502 321.625 669.364 321.08 669.364C320.511 669.364 320.038 669.509 319.659 669.801C319.284 670.089 319.002 670.481 318.812 670.977C318.627 671.47 318.534 672.023 318.534 672.636C318.534 673.258 318.629 673.822 318.818 674.33C319.011 674.833 319.295 675.235 319.67 675.534C320.049 675.83 320.519 675.977 321.08 675.977ZM331.199 677.182C330.358 677.182 329.633 676.996 329.023 676.625C328.417 676.25 327.949 675.727 327.619 675.057C327.294 674.383 327.131 673.598 327.131 672.705C327.131 671.811 327.294 671.023 327.619 670.341C327.949 669.655 328.407 669.121 328.994 668.739C329.585 668.352 330.275 668.159 331.062 668.159C331.517 668.159 331.966 668.235 332.409 668.386C332.852 668.538 333.256 668.784 333.619 669.125C333.983 669.462 334.273 669.909 334.489 670.466C334.705 671.023 334.812 671.708 334.812 672.523V673.091H328.085V671.932H333.449C333.449 671.439 333.35 671 333.153 670.614C332.96 670.227 332.684 669.922 332.324 669.699C331.968 669.475 331.547 669.364 331.062 669.364C330.528 669.364 330.066 669.496 329.676 669.761C329.29 670.023 328.992 670.364 328.784 670.784C328.576 671.205 328.472 671.655 328.472 672.136V672.909C328.472 673.568 328.585 674.127 328.812 674.585C329.044 675.04 329.364 675.386 329.773 675.625C330.182 675.86 330.657 675.977 331.199 675.977C331.551 675.977 331.869 675.928 332.153 675.83C332.441 675.727 332.689 675.576 332.898 675.375C333.106 675.17 333.267 674.917 333.381 674.614L334.676 674.977C334.54 675.417 334.311 675.803 333.989 676.136C333.667 676.466 333.269 676.723 332.795 676.909C332.322 677.091 331.79 677.182 331.199 677.182ZM340.148 677.182C339.42 677.182 338.778 676.998 338.222 676.631C337.665 676.259 337.229 675.737 336.915 675.062C336.6 674.384 336.443 673.583 336.443 672.659C336.443 671.742 336.6 670.947 336.915 670.273C337.229 669.598 337.667 669.078 338.227 668.71C338.788 668.343 339.436 668.159 340.17 668.159C340.739 668.159 341.188 668.254 341.517 668.443C341.85 668.629 342.104 668.841 342.278 669.08C342.456 669.314 342.595 669.508 342.693 669.659H342.807V665.364H344.148V677H342.852V675.659H342.693C342.595 675.818 342.455 676.019 342.273 676.261C342.091 676.5 341.831 676.714 341.494 676.903C341.157 677.089 340.708 677.182 340.148 677.182ZM340.33 675.977C340.867 675.977 341.322 675.837 341.693 675.557C342.064 675.273 342.347 674.881 342.54 674.381C342.733 673.877 342.83 673.295 342.83 672.636C342.83 671.985 342.735 671.415 342.545 670.926C342.356 670.434 342.076 670.051 341.705 669.778C341.333 669.502 340.875 669.364 340.33 669.364C339.761 669.364 339.288 669.509 338.909 669.801C338.534 670.089 338.252 670.481 338.062 670.977C337.877 671.47 337.784 672.023 337.784 672.636C337.784 673.258 337.879 673.822 338.068 674.33C338.261 674.833 338.545 675.235 338.92 675.534C339.299 675.83 339.769 675.977 340.33 675.977ZM98.5227 687.273V688.409H94V687.273H98.5227ZM95.3182 685.182H96.6591V693.5C96.6591 693.879 96.714 694.163 96.8239 694.352C96.9375 694.538 97.0814 694.663 97.2557 694.727C97.4337 694.788 97.6212 694.818 97.8182 694.818C97.9659 694.818 98.0871 694.811 98.1818 694.795C98.2765 694.777 98.3523 694.761 98.4091 694.75L98.6818 695.955C98.5909 695.989 98.464 696.023 98.3011 696.057C98.1383 696.095 97.9318 696.114 97.6818 696.114C97.303 696.114 96.9318 696.032 96.5682 695.869C96.2083 695.706 95.9091 695.458 95.6705 695.125C95.4356 694.792 95.3182 694.371 95.3182 693.864V685.182ZM103.991 696.182C103.204 696.182 102.512 695.994 101.918 695.619C101.327 695.244 100.865 694.72 100.531 694.045C100.202 693.371 100.037 692.583 100.037 691.682C100.037 690.773 100.202 689.979 100.531 689.301C100.865 688.623 101.327 688.097 101.918 687.722C102.512 687.347 103.204 687.159 103.991 687.159C104.779 687.159 105.469 687.347 106.06 687.722C106.654 688.097 107.116 688.623 107.446 689.301C107.779 689.979 107.946 690.773 107.946 691.682C107.946 692.583 107.779 693.371 107.446 694.045C107.116 694.72 106.654 695.244 106.06 695.619C105.469 695.994 104.779 696.182 103.991 696.182ZM103.991 694.977C104.59 694.977 105.082 694.824 105.469 694.517C105.855 694.21 106.141 693.807 106.327 693.307C106.512 692.807 106.605 692.265 106.605 691.682C106.605 691.098 106.512 690.555 106.327 690.051C106.141 689.547 105.855 689.14 105.469 688.83C105.082 688.519 104.59 688.364 103.991 688.364C103.393 688.364 102.901 688.519 102.514 688.83C102.128 689.14 101.842 689.547 101.656 690.051C101.471 690.555 101.378 691.098 101.378 691.682C101.378 692.265 101.471 692.807 101.656 693.307C101.842 693.807 102.128 694.21 102.514 694.517C102.901 694.824 103.393 694.977 103.991 694.977ZM113.538 696.182C112.75 696.182 112.059 695.994 111.464 695.619C110.874 695.244 110.411 694.72 110.078 694.045C109.749 693.371 109.584 692.583 109.584 691.682C109.584 690.773 109.749 689.979 110.078 689.301C110.411 688.623 110.874 688.097 111.464 687.722C112.059 687.347 112.75 687.159 113.538 687.159C114.326 687.159 115.016 687.347 115.607 687.722C116.201 688.097 116.663 688.623 116.993 689.301C117.326 689.979 117.493 690.773 117.493 691.682C117.493 692.583 117.326 693.371 116.993 694.045C116.663 694.72 116.201 695.244 115.607 695.619C115.016 695.994 114.326 696.182 113.538 696.182ZM113.538 694.977C114.137 694.977 114.629 694.824 115.016 694.517C115.402 694.21 115.688 693.807 115.874 693.307C116.059 692.807 116.152 692.265 116.152 691.682C116.152 691.098 116.059 690.555 115.874 690.051C115.688 689.547 115.402 689.14 115.016 688.83C114.629 688.519 114.137 688.364 113.538 688.364C112.94 688.364 112.447 688.519 112.061 688.83C111.675 689.14 111.389 689.547 111.203 690.051C111.018 690.555 110.925 691.098 110.925 691.682C110.925 692.265 111.018 692.807 111.203 693.307C111.389 693.807 111.675 694.21 112.061 694.517C112.447 694.824 112.94 694.977 113.538 694.977ZM120.881 684.364V696H119.54V684.364H120.881ZM129.518 689.227L128.314 689.568C128.238 689.367 128.126 689.172 127.979 688.983C127.835 688.79 127.638 688.631 127.388 688.506C127.138 688.381 126.818 688.318 126.428 688.318C125.893 688.318 125.448 688.441 125.092 688.688C124.74 688.93 124.564 689.239 124.564 689.614C124.564 689.947 124.685 690.21 124.928 690.403C125.17 690.597 125.549 690.758 126.064 690.886L127.359 691.205C128.14 691.394 128.721 691.684 129.104 692.074C129.486 692.46 129.678 692.958 129.678 693.568C129.678 694.068 129.534 694.515 129.246 694.909C128.962 695.303 128.564 695.614 128.053 695.841C127.541 696.068 126.946 696.182 126.268 696.182C125.378 696.182 124.642 695.989 124.058 695.602C123.475 695.216 123.106 694.652 122.95 693.909L124.223 693.591C124.344 694.061 124.573 694.413 124.911 694.648C125.251 694.883 125.696 695 126.246 695C126.871 695 127.367 694.867 127.734 694.602C128.106 694.333 128.291 694.011 128.291 693.636C128.291 693.333 128.185 693.08 127.973 692.875C127.761 692.667 127.435 692.511 126.996 692.409L125.541 692.068C124.742 691.879 124.155 691.585 123.78 691.188C123.409 690.786 123.223 690.284 123.223 689.682C123.223 689.189 123.361 688.754 123.638 688.375C123.918 687.996 124.299 687.699 124.78 687.483C125.265 687.267 125.814 687.159 126.428 687.159C127.291 687.159 127.969 687.348 128.462 687.727C128.958 688.106 129.31 688.606 129.518 689.227ZM140.082 687.273V688.409H135.378V687.273H140.082ZM136.787 696V686.068C136.787 685.568 136.904 685.152 137.139 684.818C137.374 684.485 137.679 684.235 138.054 684.068C138.429 683.902 138.825 683.818 139.241 683.818C139.571 683.818 139.84 683.845 140.048 683.898C140.257 683.951 140.412 684 140.514 684.045L140.128 685.205C140.06 685.182 139.965 685.153 139.844 685.119C139.726 685.085 139.571 685.068 139.378 685.068C138.935 685.068 138.615 685.18 138.418 685.403C138.224 685.627 138.128 685.955 138.128 686.386V696H136.787ZM145.148 696.182C144.36 696.182 143.669 695.994 143.074 695.619C142.483 695.244 142.021 694.72 141.688 694.045C141.358 693.371 141.193 692.583 141.193 691.682C141.193 690.773 141.358 689.979 141.688 689.301C142.021 688.623 142.483 688.097 143.074 687.722C143.669 687.347 144.36 687.159 145.148 687.159C145.936 687.159 146.625 687.347 147.216 687.722C147.811 688.097 148.273 688.623 148.602 689.301C148.936 689.979 149.102 690.773 149.102 691.682C149.102 692.583 148.936 693.371 148.602 694.045C148.273 694.72 147.811 695.244 147.216 695.619C146.625 695.994 145.936 696.182 145.148 696.182ZM145.148 694.977C145.746 694.977 146.239 694.824 146.625 694.517C147.011 694.21 147.297 693.807 147.483 693.307C147.669 692.807 147.761 692.265 147.761 691.682C147.761 691.098 147.669 690.555 147.483 690.051C147.297 689.547 147.011 689.14 146.625 688.83C146.239 688.519 145.746 688.364 145.148 688.364C144.549 688.364 144.057 688.519 143.67 688.83C143.284 689.14 142.998 689.547 142.812 690.051C142.627 690.555 142.534 691.098 142.534 691.682C142.534 692.265 142.627 692.807 142.812 693.307C142.998 693.807 143.284 694.21 143.67 694.517C144.057 694.824 144.549 694.977 145.148 694.977ZM151.149 696V687.273H152.445V688.591H152.536C152.695 688.159 152.982 687.809 153.399 687.54C153.816 687.271 154.286 687.136 154.808 687.136C154.907 687.136 155.03 687.138 155.178 687.142C155.325 687.146 155.437 687.152 155.513 687.159V688.523C155.467 688.511 155.363 688.494 155.2 688.472C155.041 688.445 154.873 688.432 154.695 688.432C154.27 688.432 153.892 688.521 153.558 688.699C153.229 688.873 152.967 689.116 152.774 689.426C152.585 689.733 152.49 690.083 152.49 690.477V696H151.149ZM162.466 699.273C162.239 699.273 162.036 699.254 161.858 699.216C161.68 699.182 161.557 699.148 161.489 699.114L161.83 697.932C162.155 698.015 162.443 698.045 162.693 698.023C162.943 698 163.165 697.888 163.358 697.688C163.555 697.491 163.735 697.17 163.898 696.727L164.148 696.045L160.92 687.273H162.375L164.784 694.227H164.875L167.284 687.273H168.739L165.034 697.273C164.867 697.723 164.661 698.097 164.415 698.392C164.169 698.691 163.883 698.913 163.557 699.057C163.235 699.201 162.871 699.273 162.466 699.273ZM173.741 696.182C172.954 696.182 172.262 695.994 171.668 695.619C171.077 695.244 170.615 694.72 170.281 694.045C169.952 693.371 169.787 692.583 169.787 691.682C169.787 690.773 169.952 689.979 170.281 689.301C170.615 688.623 171.077 688.097 171.668 687.722C172.262 687.347 172.954 687.159 173.741 687.159C174.529 687.159 175.219 687.347 175.81 687.722C176.404 688.097 176.866 688.623 177.196 689.301C177.529 689.979 177.696 690.773 177.696 691.682C177.696 692.583 177.529 693.371 177.196 694.045C176.866 694.72 176.404 695.244 175.81 695.619C175.219 695.994 174.529 696.182 173.741 696.182ZM173.741 694.977C174.34 694.977 174.832 694.824 175.219 694.517C175.605 694.21 175.891 693.807 176.077 693.307C176.262 692.807 176.355 692.265 176.355 691.682C176.355 691.098 176.262 690.555 176.077 690.051C175.891 689.547 175.605 689.14 175.219 688.83C174.832 688.519 174.34 688.364 173.741 688.364C173.143 688.364 172.651 688.519 172.264 688.83C171.878 689.14 171.592 689.547 171.406 690.051C171.221 690.555 171.128 691.098 171.128 691.682C171.128 692.265 171.221 692.807 171.406 693.307C171.592 693.807 171.878 694.21 172.264 694.517C172.651 694.824 173.143 694.977 173.741 694.977ZM185.243 692.432V687.273H186.584V696H185.243V694.523H185.152C184.947 694.966 184.629 695.343 184.197 695.653C183.766 695.96 183.22 696.114 182.561 696.114C182.016 696.114 181.531 695.994 181.107 695.756C180.682 695.513 180.349 695.15 180.107 694.665C179.864 694.176 179.743 693.561 179.743 692.818V687.273H181.084V692.727C181.084 693.364 181.262 693.871 181.618 694.25C181.978 694.629 182.436 694.818 182.993 694.818C183.326 694.818 183.665 694.733 184.01 694.562C184.358 694.392 184.65 694.131 184.885 693.778C185.124 693.426 185.243 692.977 185.243 692.432ZM189.04 696V687.273H190.335V688.591H190.426C190.585 688.159 190.873 687.809 191.29 687.54C191.706 687.271 192.176 687.136 192.699 687.136C192.797 687.136 192.92 687.138 193.068 687.142C193.216 687.146 193.328 687.152 193.403 687.159V688.523C193.358 688.511 193.254 688.494 193.091 688.472C192.932 688.445 192.763 688.432 192.585 688.432C192.161 688.432 191.782 688.521 191.449 688.699C191.119 688.873 190.858 689.116 190.665 689.426C190.475 689.733 190.381 690.083 190.381 690.477V696H189.04ZM199.493 696V687.273H200.788V688.636H200.902C201.084 688.17 201.377 687.809 201.783 687.551C202.188 687.29 202.675 687.159 203.243 687.159C203.819 687.159 204.298 687.29 204.68 687.551C205.067 687.809 205.368 688.17 205.584 688.636H205.675C205.898 688.186 206.233 687.828 206.68 687.562C207.127 687.294 207.663 687.159 208.288 687.159C209.069 687.159 209.707 687.403 210.203 687.892C210.699 688.377 210.947 689.133 210.947 690.159V696H209.607V690.159C209.607 689.515 209.43 689.055 209.078 688.778C208.726 688.502 208.311 688.364 207.834 688.364C207.22 688.364 206.745 688.549 206.408 688.92C206.071 689.288 205.902 689.754 205.902 690.318V696H204.538V690.023C204.538 689.527 204.377 689.127 204.055 688.824C203.733 688.517 203.319 688.364 202.811 688.364C202.463 688.364 202.137 688.456 201.834 688.642C201.535 688.828 201.292 689.085 201.107 689.415C200.925 689.741 200.834 690.117 200.834 690.545V696H199.493ZM217.058 696.182C216.217 696.182 215.492 695.996 214.882 695.625C214.276 695.25 213.808 694.727 213.479 694.057C213.153 693.383 212.99 692.598 212.99 691.705C212.99 690.811 213.153 690.023 213.479 689.341C213.808 688.655 214.267 688.121 214.854 687.739C215.445 687.352 216.134 687.159 216.922 687.159C217.376 687.159 217.825 687.235 218.268 687.386C218.712 687.538 219.115 687.784 219.479 688.125C219.842 688.462 220.132 688.909 220.348 689.466C220.564 690.023 220.672 690.708 220.672 691.523V692.091H213.945V690.932H219.308C219.308 690.439 219.21 690 219.013 689.614C218.82 689.227 218.543 688.922 218.183 688.699C217.827 688.475 217.407 688.364 216.922 688.364C216.388 688.364 215.926 688.496 215.536 688.761C215.149 689.023 214.852 689.364 214.643 689.784C214.435 690.205 214.331 690.655 214.331 691.136V691.909C214.331 692.568 214.445 693.127 214.672 693.585C214.903 694.04 215.223 694.386 215.632 694.625C216.041 694.86 216.517 694.977 217.058 694.977C217.411 694.977 217.729 694.928 218.013 694.83C218.301 694.727 218.549 694.576 218.757 694.375C218.965 694.17 219.126 693.917 219.24 693.614L220.536 693.977C220.399 694.417 220.17 694.803 219.848 695.136C219.526 695.466 219.128 695.723 218.655 695.909C218.181 696.091 217.649 696.182 217.058 696.182ZM224.053 690.75V696H222.712V687.273H224.007V688.636H224.121C224.325 688.193 224.636 687.837 225.053 687.568C225.469 687.295 226.007 687.159 226.666 687.159C227.257 687.159 227.774 687.28 228.217 687.523C228.661 687.761 229.005 688.125 229.251 688.614C229.498 689.098 229.621 689.712 229.621 690.455V696H228.28V690.545C228.28 689.86 228.102 689.326 227.746 688.943C227.39 688.557 226.901 688.364 226.28 688.364C225.852 688.364 225.469 688.456 225.132 688.642C224.799 688.828 224.536 689.098 224.342 689.455C224.149 689.811 224.053 690.242 224.053 690.75ZM235.866 687.273V688.409H231.344V687.273H235.866ZM232.662 685.182H234.003V693.5C234.003 693.879 234.058 694.163 234.168 694.352C234.281 694.538 234.425 694.663 234.599 694.727C234.777 694.788 234.965 694.818 235.162 694.818C235.31 694.818 235.431 694.811 235.526 694.795C235.62 694.777 235.696 694.761 235.753 694.75L236.026 695.955C235.935 695.989 235.808 696.023 235.645 696.057C235.482 696.095 235.276 696.114 235.026 696.114C234.647 696.114 234.276 696.032 233.912 695.869C233.552 695.706 233.253 695.458 233.014 695.125C232.779 694.792 232.662 694.371 232.662 693.864V685.182ZM240.452 696.205C239.899 696.205 239.397 696.1 238.946 695.892C238.495 695.68 238.137 695.375 237.872 694.977C237.607 694.576 237.474 694.091 237.474 693.523C237.474 693.023 237.573 692.617 237.77 692.307C237.967 691.992 238.23 691.746 238.56 691.568C238.889 691.39 239.253 691.258 239.651 691.17C240.052 691.08 240.455 691.008 240.861 690.955C241.391 690.886 241.821 690.835 242.151 690.801C242.484 690.763 242.726 690.701 242.878 690.614C243.033 690.527 243.111 690.375 243.111 690.159V690.114C243.111 689.553 242.957 689.117 242.651 688.807C242.348 688.496 241.887 688.341 241.27 688.341C240.63 688.341 240.128 688.481 239.764 688.761C239.401 689.042 239.145 689.341 238.997 689.659L237.724 689.205C237.952 688.674 238.255 688.261 238.634 687.966C239.016 687.667 239.433 687.458 239.884 687.341C240.338 687.22 240.785 687.159 241.224 687.159C241.505 687.159 241.827 687.193 242.19 687.261C242.558 687.326 242.912 687.46 243.253 687.665C243.598 687.869 243.884 688.178 244.111 688.591C244.338 689.004 244.452 689.557 244.452 690.25V696H243.111V694.818H243.043C242.952 695.008 242.8 695.21 242.588 695.426C242.376 695.642 242.094 695.826 241.741 695.977C241.389 696.129 240.959 696.205 240.452 696.205ZM240.656 695C241.187 695 241.634 694.896 241.997 694.688C242.365 694.479 242.641 694.21 242.827 693.881C243.016 693.551 243.111 693.205 243.111 692.841V691.614C243.054 691.682 242.929 691.744 242.736 691.801C242.546 691.854 242.327 691.902 242.077 691.943C241.83 691.981 241.59 692.015 241.355 692.045C241.124 692.072 240.937 692.095 240.793 692.114C240.444 692.159 240.118 692.233 239.815 692.335C239.516 692.434 239.274 692.583 239.088 692.784C238.906 692.981 238.815 693.25 238.815 693.591C238.815 694.057 238.988 694.409 239.332 694.648C239.681 694.883 240.122 695 240.656 695ZM248.24 684.364V696H246.899V684.364H248.24ZM257.173 696L254.514 687.273H255.923L257.81 693.955H257.901L259.764 687.273H261.196L263.037 693.932H263.128L265.014 687.273H266.423L263.764 696H262.446L260.537 689.295H260.401L258.491 696H257.173ZM271.558 696.182C270.717 696.182 269.992 695.996 269.382 695.625C268.776 695.25 268.308 694.727 267.979 694.057C267.653 693.383 267.49 692.598 267.49 691.705C267.49 690.811 267.653 690.023 267.979 689.341C268.308 688.655 268.767 688.121 269.354 687.739C269.945 687.352 270.634 687.159 271.422 687.159C271.876 687.159 272.325 687.235 272.768 687.386C273.212 687.538 273.615 687.784 273.979 688.125C274.342 688.462 274.632 688.909 274.848 689.466C275.064 690.023 275.172 690.708 275.172 691.523V692.091H268.445V690.932H273.808C273.808 690.439 273.71 690 273.513 689.614C273.32 689.227 273.043 688.922 272.683 688.699C272.327 688.475 271.907 688.364 271.422 688.364C270.888 688.364 270.426 688.496 270.036 688.761C269.649 689.023 269.352 689.364 269.143 689.784C268.935 690.205 268.831 690.655 268.831 691.136V691.909C268.831 692.568 268.945 693.127 269.172 693.585C269.403 694.04 269.723 694.386 270.132 694.625C270.541 694.86 271.017 694.977 271.558 694.977C271.911 694.977 272.229 694.928 272.513 694.83C272.801 694.727 273.049 694.576 273.257 694.375C273.465 694.17 273.626 693.917 273.74 693.614L275.036 693.977C274.899 694.417 274.67 694.803 274.348 695.136C274.026 695.466 273.628 695.723 273.155 695.909C272.681 696.091 272.149 696.182 271.558 696.182ZM278.553 684.364V696H277.212V684.364H278.553ZM282.349 684.364V696H281.009V684.364H282.349ZM289.805 690.386V691.636H284.714V690.386H289.805ZM292.347 696V684.364H293.688V688.659H293.801C293.9 688.508 294.036 688.314 294.21 688.08C294.388 687.841 294.642 687.629 294.972 687.443C295.305 687.254 295.756 687.159 296.324 687.159C297.059 687.159 297.706 687.343 298.267 687.71C298.828 688.078 299.265 688.598 299.58 689.273C299.894 689.947 300.051 690.742 300.051 691.659C300.051 692.583 299.894 693.384 299.58 694.062C299.265 694.737 298.83 695.259 298.273 695.631C297.716 695.998 297.074 696.182 296.347 696.182C295.786 696.182 295.337 696.089 295 695.903C294.663 695.714 294.403 695.5 294.222 695.261C294.04 695.019 293.9 694.818 293.801 694.659H293.642V696H292.347ZM293.665 691.636C293.665 692.295 293.761 692.877 293.955 693.381C294.148 693.881 294.43 694.273 294.801 694.557C295.172 694.837 295.627 694.977 296.165 694.977C296.725 694.977 297.193 694.83 297.568 694.534C297.947 694.235 298.231 693.833 298.42 693.33C298.614 692.822 298.71 692.258 298.71 691.636C298.71 691.023 298.616 690.47 298.426 689.977C298.241 689.481 297.958 689.089 297.58 688.801C297.205 688.509 296.733 688.364 296.165 688.364C295.619 688.364 295.161 688.502 294.79 688.778C294.419 689.051 294.138 689.434 293.949 689.926C293.759 690.415 293.665 690.985 293.665 691.636ZM305.761 696.182C304.92 696.182 304.195 695.996 303.585 695.625C302.979 695.25 302.511 694.727 302.182 694.057C301.856 693.383 301.693 692.598 301.693 691.705C301.693 690.811 301.856 690.023 302.182 689.341C302.511 688.655 302.97 688.121 303.557 687.739C304.148 687.352 304.837 687.159 305.625 687.159C306.08 687.159 306.528 687.235 306.972 687.386C307.415 687.538 307.818 687.784 308.182 688.125C308.545 688.462 308.835 688.909 309.051 689.466C309.267 690.023 309.375 690.708 309.375 691.523V692.091H302.648V690.932H308.011C308.011 690.439 307.913 690 307.716 689.614C307.523 689.227 307.246 688.922 306.886 688.699C306.53 688.475 306.11 688.364 305.625 688.364C305.091 688.364 304.629 688.496 304.239 688.761C303.852 689.023 303.555 689.364 303.347 689.784C303.138 690.205 303.034 690.655 303.034 691.136V691.909C303.034 692.568 303.148 693.127 303.375 693.585C303.606 694.04 303.926 694.386 304.335 694.625C304.744 694.86 305.22 694.977 305.761 694.977C306.114 694.977 306.432 694.928 306.716 694.83C307.004 694.727 307.252 694.576 307.46 694.375C307.669 694.17 307.83 693.917 307.943 693.614L309.239 693.977C309.102 694.417 308.873 694.803 308.551 695.136C308.229 695.466 307.831 695.723 307.358 695.909C306.884 696.091 306.352 696.182 305.761 696.182ZM311.415 696V687.273H312.756V696H311.415ZM312.097 685.818C311.835 685.818 311.61 685.729 311.42 685.551C311.235 685.373 311.142 685.159 311.142 684.909C311.142 684.659 311.235 684.445 311.42 684.267C311.61 684.089 311.835 684 312.097 684C312.358 684 312.581 684.089 312.767 684.267C312.956 684.445 313.051 684.659 313.051 684.909C313.051 685.159 312.956 685.373 312.767 685.551C312.581 685.729 312.358 685.818 312.097 685.818ZM316.553 690.75V696H315.212V687.273H316.507V688.636H316.621C316.825 688.193 317.136 687.837 317.553 687.568C317.969 687.295 318.507 687.159 319.166 687.159C319.757 687.159 320.274 687.28 320.717 687.523C321.161 687.761 321.505 688.125 321.751 688.614C321.998 689.098 322.121 689.712 322.121 690.455V696H320.78V690.545C320.78 689.86 320.602 689.326 320.246 688.943C319.89 688.557 319.401 688.364 318.78 688.364C318.352 688.364 317.969 688.456 317.632 688.642C317.299 688.828 317.036 689.098 316.842 689.455C316.649 689.811 316.553 690.242 316.553 690.75ZM328.094 699.455C327.446 699.455 326.889 699.371 326.423 699.205C325.957 699.042 325.569 698.826 325.259 698.557C324.952 698.292 324.707 698.008 324.526 697.705L325.594 696.955C325.715 697.114 325.868 697.295 326.054 697.5C326.24 697.708 326.493 697.888 326.815 698.04C327.141 698.195 327.567 698.273 328.094 698.273C328.798 698.273 329.38 698.102 329.838 697.761C330.296 697.42 330.526 696.886 330.526 696.159V694.386H330.412C330.313 694.545 330.173 694.742 329.991 694.977C329.813 695.208 329.556 695.415 329.219 695.597C328.885 695.775 328.435 695.864 327.866 695.864C327.162 695.864 326.529 695.697 325.969 695.364C325.412 695.03 324.971 694.545 324.645 693.909C324.323 693.273 324.162 692.5 324.162 691.591C324.162 690.697 324.319 689.919 324.634 689.256C324.948 688.589 325.385 688.074 325.946 687.71C326.507 687.343 327.154 687.159 327.889 687.159C328.457 687.159 328.908 687.254 329.241 687.443C329.579 687.629 329.836 687.841 330.014 688.08C330.196 688.314 330.336 688.508 330.435 688.659H330.571V687.273H331.866V696.25C331.866 697 331.696 697.61 331.355 698.08C331.018 698.553 330.563 698.9 329.991 699.119C329.423 699.343 328.791 699.455 328.094 699.455ZM328.048 694.659C328.586 694.659 329.041 694.536 329.412 694.29C329.783 694.044 330.065 693.689 330.259 693.227C330.452 692.765 330.548 692.212 330.548 691.568C330.548 690.939 330.454 690.384 330.264 689.903C330.075 689.422 329.795 689.045 329.423 688.773C329.052 688.5 328.594 688.364 328.048 688.364C327.48 688.364 327.007 688.508 326.628 688.795C326.253 689.083 325.971 689.47 325.781 689.955C325.596 690.439 325.503 690.977 325.503 691.568C325.503 692.174 325.598 692.71 325.787 693.176C325.98 693.638 326.264 694.002 326.639 694.267C327.018 694.528 327.488 694.659 328.048 694.659ZM335.298 696.091C335.018 696.091 334.777 695.991 334.577 695.79C334.376 695.589 334.276 695.348 334.276 695.068C334.276 694.788 334.376 694.547 334.577 694.347C334.777 694.146 335.018 694.045 335.298 694.045C335.579 694.045 335.819 694.146 336.02 694.347C336.221 694.547 336.321 694.788 336.321 695.068C336.321 695.254 336.274 695.424 336.179 695.58C336.088 695.735 335.965 695.86 335.81 695.955C335.658 696.045 335.488 696.091 335.298 696.091Z" fill="#0D0D7F"/>
<rect x="104.5" y="781.5" width="220" height="41" rx="11.5" fill="#0D0D7F"/>
<rect x="104.5" y="781.5" width="220" height="41" rx="11.5" stroke="#0D0D7F"/>
<path d="M184.921 806.5V797.773H186.502V805.175H190.346V806.5H184.921ZM194.548 806.628C193.892 806.628 193.325 806.491 192.847 806.219C192.373 805.943 192.008 805.554 191.752 805.051C191.497 804.545 191.369 803.95 191.369 803.266C191.369 802.592 191.497 802.001 191.752 801.493C192.011 800.982 192.372 800.584 192.835 800.3C193.298 800.013 193.842 799.869 194.467 799.869C194.87 799.869 195.251 799.935 195.609 800.065C195.97 800.193 196.288 800.392 196.563 800.662C196.842 800.932 197.061 801.276 197.22 801.693C197.379 802.108 197.458 802.602 197.458 803.176V803.649H192.093V802.609H195.98C195.977 802.314 195.913 802.051 195.788 801.821C195.663 801.588 195.488 801.405 195.264 801.271C195.042 801.138 194.784 801.071 194.488 801.071C194.173 801.071 193.896 801.148 193.657 801.301C193.419 801.452 193.232 801.651 193.099 801.898C192.968 802.142 192.901 802.411 192.899 802.703V803.611C192.899 803.991 192.968 804.318 193.107 804.591C193.247 804.861 193.441 805.068 193.691 805.213C193.941 805.355 194.234 805.426 194.569 805.426C194.794 805.426 194.997 805.395 195.178 805.332C195.36 805.267 195.518 805.172 195.651 805.047C195.785 804.922 195.886 804.767 195.954 804.582L197.394 804.744C197.303 805.125 197.13 805.457 196.874 805.741C196.622 806.023 196.298 806.241 195.903 806.398C195.508 806.551 195.056 806.628 194.548 806.628ZM202.032 799.955V801.148H198.269V799.955H202.032ZM199.198 798.386H200.741V804.531C200.741 804.739 200.772 804.898 200.834 805.009C200.9 805.116 200.985 805.19 201.09 805.23C201.195 805.27 201.312 805.29 201.439 805.29C201.536 805.29 201.624 805.283 201.704 805.268C201.786 805.254 201.849 805.241 201.891 805.23L202.151 806.436C202.069 806.464 201.951 806.496 201.797 806.53C201.647 806.564 201.462 806.584 201.243 806.589C200.857 806.601 200.509 806.543 200.199 806.415C199.89 806.284 199.644 806.082 199.462 805.81C199.283 805.537 199.195 805.196 199.198 804.787V798.386ZM208.401 801.685L206.995 801.838C206.955 801.696 206.886 801.562 206.786 801.438C206.69 801.312 206.559 801.212 206.394 801.135C206.23 801.058 206.028 801.02 205.789 801.02C205.468 801.02 205.198 801.089 204.98 801.229C204.764 801.368 204.657 801.548 204.66 801.77C204.657 801.96 204.727 802.115 204.869 802.234C205.014 802.354 205.252 802.452 205.585 802.528L206.701 802.767C207.32 802.901 207.781 803.112 208.082 803.402C208.386 803.692 208.539 804.071 208.542 804.54C208.539 804.952 208.419 805.315 208.18 805.631C207.944 805.943 207.616 806.187 207.195 806.364C206.775 806.54 206.292 806.628 205.747 806.628C204.945 806.628 204.301 806.46 203.812 806.125C203.323 805.787 203.032 805.317 202.938 804.714L204.443 804.57C204.511 804.865 204.656 805.088 204.877 805.239C205.099 805.389 205.387 805.464 205.742 805.464C206.109 805.464 206.403 805.389 206.624 805.239C206.849 805.088 206.961 804.902 206.961 804.68C206.961 804.493 206.889 804.338 206.744 804.216C206.602 804.094 206.38 804 206.079 803.935L204.963 803.7C204.335 803.57 203.87 803.349 203.569 803.04C203.268 802.727 203.119 802.332 203.122 801.855C203.119 801.452 203.228 801.102 203.45 800.807C203.674 800.509 203.985 800.278 204.383 800.116C204.784 799.952 205.245 799.869 205.768 799.869C206.535 799.869 207.139 800.033 207.579 800.359C208.022 800.686 208.296 801.128 208.401 801.685ZM212.859 806.5V797.773H216.2C216.83 797.773 217.355 797.872 217.772 798.071C218.193 798.267 218.507 798.536 218.714 798.876C218.924 799.217 219.029 799.604 219.029 800.036C219.029 800.391 218.961 800.695 218.825 800.947C218.688 801.197 218.505 801.401 218.275 801.557C218.045 801.713 217.788 801.825 217.504 801.893V801.979C217.813 801.996 218.11 802.091 218.394 802.264C218.681 802.435 218.916 802.676 219.097 802.989C219.279 803.301 219.37 803.679 219.37 804.122C219.37 804.574 219.261 804.98 219.042 805.341C218.823 805.699 218.494 805.982 218.053 806.189C217.613 806.396 217.059 806.5 216.392 806.5H212.859ZM214.44 805.179H216.14C216.714 805.179 217.127 805.07 217.38 804.851C217.636 804.629 217.764 804.345 217.764 803.999C217.764 803.74 217.7 803.507 217.572 803.3C217.444 803.089 217.262 802.925 217.026 802.805C216.791 802.683 216.509 802.622 216.183 802.622H214.44V805.179ZM214.44 801.484H216.004C216.276 801.484 216.522 801.435 216.741 801.335C216.96 801.233 217.132 801.089 217.257 800.905C217.384 800.717 217.448 800.496 217.448 800.24C217.448 799.902 217.329 799.624 217.09 799.405C216.855 799.186 216.504 799.077 216.038 799.077H214.44V801.484ZM223.575 806.628C222.919 806.628 222.352 806.491 221.875 806.219C221.4 805.943 221.035 805.554 220.78 805.051C220.524 804.545 220.396 803.95 220.396 803.266C220.396 802.592 220.524 802.001 220.78 801.493C221.038 800.982 221.399 800.584 221.862 800.3C222.325 800.013 222.869 799.869 223.494 799.869C223.898 799.869 224.278 799.935 224.636 800.065C224.997 800.193 225.315 800.392 225.591 800.662C225.869 800.932 226.088 801.276 226.247 801.693C226.406 802.108 226.486 802.602 226.486 803.176V803.649H221.121V802.609H225.007C225.004 802.314 224.94 802.051 224.815 801.821C224.69 801.588 224.515 801.405 224.291 801.271C224.069 801.138 223.811 801.071 223.515 801.071C223.2 801.071 222.923 801.148 222.684 801.301C222.446 801.452 222.26 801.651 222.126 801.898C221.996 802.142 221.929 802.411 221.926 802.703V803.611C221.926 803.991 221.996 804.318 222.135 804.591C222.274 804.861 222.469 805.068 222.719 805.213C222.969 805.355 223.261 805.426 223.596 805.426C223.821 805.426 224.024 805.395 224.206 805.332C224.388 805.267 224.545 805.172 224.679 805.047C224.812 804.922 224.913 804.767 224.981 804.582L226.422 804.744C226.331 805.125 226.157 805.457 225.902 805.741C225.649 806.023 225.325 806.241 224.93 806.398C224.535 806.551 224.084 806.628 223.575 806.628ZM230.637 809.091C230.083 809.091 229.607 809.016 229.21 808.865C228.812 808.717 228.492 808.518 228.251 808.268C228.009 808.018 227.842 807.741 227.748 807.438L229.137 807.101C229.2 807.229 229.291 807.355 229.41 807.48C229.529 807.608 229.69 807.713 229.892 807.795C230.096 807.881 230.353 807.923 230.663 807.923C231.1 807.923 231.463 807.817 231.749 807.604C232.036 807.393 232.18 807.047 232.18 806.564V805.324H232.103C232.024 805.483 231.907 805.646 231.754 805.814C231.603 805.982 231.403 806.122 231.153 806.236C230.906 806.349 230.595 806.406 230.22 806.406C229.717 806.406 229.261 806.288 228.852 806.053C228.445 805.814 228.122 805.459 227.88 804.987C227.642 804.513 227.522 803.919 227.522 803.206C227.522 802.487 227.642 801.881 227.88 801.386C228.122 800.889 228.447 800.513 228.856 800.257C229.265 799.999 229.721 799.869 230.224 799.869C230.607 799.869 230.923 799.935 231.17 800.065C231.42 800.193 231.619 800.348 231.767 800.53C231.914 800.709 232.026 800.878 232.103 801.037H232.188V799.955H233.71V806.607C233.71 807.166 233.576 807.629 233.309 807.996C233.042 808.362 232.677 808.636 232.214 808.818C231.751 809 231.225 809.091 230.637 809.091ZM230.65 805.196C230.977 805.196 231.255 805.116 231.485 804.957C231.715 804.798 231.89 804.57 232.009 804.271C232.129 803.973 232.188 803.615 232.188 803.197C232.188 802.786 232.129 802.425 232.009 802.115C231.893 801.805 231.72 801.565 231.49 801.395C231.262 801.222 230.982 801.135 230.65 801.135C230.306 801.135 230.019 801.224 229.789 801.403C229.559 801.582 229.386 801.828 229.269 802.141C229.153 802.45 229.095 802.803 229.095 803.197C229.095 803.598 229.153 803.949 229.269 804.25C229.389 804.548 229.563 804.781 229.794 804.949C230.026 805.114 230.312 805.196 230.65 805.196ZM235.291 806.5V799.955H236.833V806.5H235.291ZM236.066 799.026C235.822 799.026 235.612 798.945 235.436 798.783C235.259 798.618 235.171 798.42 235.171 798.19C235.171 797.957 235.259 797.76 235.436 797.598C235.612 797.433 235.822 797.351 236.066 797.351C236.313 797.351 236.524 797.433 236.697 797.598C236.873 797.76 236.961 797.957 236.961 798.19C236.961 798.42 236.873 798.618 236.697 798.783C236.524 798.945 236.313 799.026 236.066 799.026ZM239.962 802.665V806.5H238.42V799.955H239.894V801.067H239.971C240.121 800.7 240.361 800.409 240.691 800.193C241.023 799.977 241.434 799.869 241.922 799.869C242.374 799.869 242.768 799.966 243.103 800.159C243.441 800.352 243.702 800.632 243.887 800.999C244.074 801.365 244.167 801.81 244.164 802.332V806.5H242.621V802.571C242.621 802.134 242.508 801.791 242.28 801.544C242.056 801.297 241.745 801.173 241.347 801.173C241.077 801.173 240.837 801.233 240.627 801.352C240.42 801.469 240.256 801.638 240.137 801.859C240.02 802.081 239.962 802.349 239.962 802.665Z" fill="white"/>
</g>
<defs>
<filter id="filter0_d_2_5" x="-222" y="-541" width="886" height="886" filterUnits="userSpaceOnUse" color-interpolation-filters="sRGB">
<feFlood flood-opacity="0" result="BackgroundImageFix"/>
<feColorMatrix in="SourceAlpha" type="matrix" values="0 0 0 0 0 0 0 0 0 0 0 0 0 0 0 0 0 0 127 0" result="hardAlpha"/>
<feOffset dy="4"/>
<feGaussianBlur stdDeviation="2"/>
<feComposite in2="hardAlpha" operator="out"/>
<feColorMatrix type="matrix" values="0 0 0 0 0 0 0 0 0 0 0 0 0 0 0 0 0 0 0.25 0"/>
<feBlend mode="normal" in2="BackgroundImageFix" result="effect1_dropShadow_2_5"/>
<feBlend mode="normal" in="SourceGraphic" in2="effect1_dropShadow_2_5" result="shape"/>
</filter>
<linearGradient id="paint0_linear_2_5" x1="175.054" y1="397" x2="174.867" y2="493.917" gradientUnits="userSpaceOnUse">
<stop stop-color="#0754D9"/>
<stop offset="0.616135" stop-color="#0937B4"/>
<stop offset="1" stop-color="#0D0D7F"/>
</linearGradient>
<linearGradient id="paint1_linear_2_5" x1="259.163" y1="397" x2="259.35" y2="493.917" gradientUnits="userSpaceOnUse">
<stop stop-color="#0754D9"/>
<stop offset="0.616135" stop-color="#0937B4"/>
<stop offset="1" stop-color="#0D0D7F"/>
</linearGradient>
<clipPath id="clip0_2_5">
<rect width="430" height="932" fill="white"/>
</clipPath>
</defs>
</svg>
