<svg width="1974" height="92" viewBox="0 0 1974 92" fill="none" xmlns="http://www.w3.org/2000/svg">
<g clip-path="url(#clip0_415_493)">
<rect width="1974" height="92" fill="url(#paint0_linear_415_493)"/>
<path d="M614.548 91H612.683C612.683 100.612 604.673 104.12 600.668 104.672V106.951C611.109 107.78 613.029 116.687 612.683 121.037H615.169C615.004 110.1 622.696 107.089 626.563 106.951V104.672C617.117 103.181 614.617 94.9359 614.548 91Z" fill="white"/>
<path d="M466.043 60H464.828C464.828 66.2386 459.609 68.5154 457 68.8739V70.3529C463.803 70.8907 465.053 76.6722 464.828 79.4957H466.448C466.34 72.3966 471.352 70.4425 473.871 70.3529V68.8739C467.717 67.9059 466.088 62.5546 466.043 60Z" fill="white"/>
<path d="M1446.52 91H1447.73C1447.73 97.2386 1452.95 99.5154 1455.56 99.8739V101.353C1448.76 101.891 1447.51 107.672 1447.73 110.496H1446.11C1446.22 103.397 1441.21 101.443 1438.69 101.353V99.8739C1444.85 98.9059 1446.47 93.5546 1446.52 91Z" fill="white"/>
<path d="M1964.55 45H1962.68C1962.68 54.612 1954.67 58.1198 1950.67 58.6722V60.9509C1961.11 61.7795 1963.03 70.6872 1962.68 75.0374H1965.17C1965 64.0996 1972.7 61.089 1976.56 60.9509V58.6722C1967.12 57.1807 1964.62 48.9359 1964.55 45Z" fill="white"/>
<path d="M1816.04 14H1814.83C1814.83 20.2386 1809.61 22.5154 1807 22.8739V24.3529C1813.8 24.8907 1815.05 30.6722 1814.83 33.4957H1816.45C1816.34 26.3966 1821.35 24.4425 1823.87 24.3529V22.8739C1817.72 21.9059 1816.09 16.5546 1816.04 14Z" fill="white"/>
<circle cx="1705.94" cy="56.9359" r="3.93594" fill="white"/>
<rect width="1974" height="572" fill="black" fill-opacity="0.3"/>
</g>
<defs>
<linearGradient id="paint0_linear_415_493" x1="-111.723" y1="-6.0438" x2="-2.43245" y2="506.364" gradientUnits="userSpaceOnUse">
<stop stop-color="#1717E5"/>
<stop offset="0.533252" stop-color="#0F0F90"/>
<stop offset="1" stop-color="#0D0D7F"/>
</linearGradient>
<clipPath id="clip0_415_493">
<rect width="1974" height="92" fill="white"/>
</clipPath>
</defs>
</svg>
